<?xml version="1.0" encoding="UTF-8"?>
<svg version="1.1" xmlns="http://www.w3.org/2000/svg" width="308" height="216">
<path d="M0 0 C8.0543494 6.55784642 14.05427526 15.75620622 15.5234375 26.23046875 C16.61023692 38.47786227 12.96972369 48.55494096 5.5234375 58.23046875 C0.28591788 64.05952 -8.46736732 69.67822303 -16.40258789 70.4074707 C-31.07923349 70.82161776 -41.33552639 69.66447757 -52.4765625 59.23046875 C-59.6958016 51.63386033 -63.71352823 42.24833662 -64.1015625 31.79296875 C-63.62880257 19.93760426 -59.54988997 11.50798636 -51.46484375 2.9609375 C-49.4765625 1.23046875 -49.4765625 1.23046875 -47.4765625 1.23046875 C-47.4765625 0.57046875 -47.4765625 -0.08953125 -47.4765625 -0.76953125 C-31.67195207 -9.41422422 -15.19289271 -10.85548959 0 0 Z M-39.4765625 0.23046875 C-39.4765625 5.51046875 -39.4765625 10.79046875 -39.4765625 16.23046875 C-35.32279979 14.56896366 -31.57713289 12.70603743 -27.7265625 10.48046875 C-27.11474121 10.12919922 -26.50291992 9.77792969 -25.87255859 9.41601562 C-20.93577754 6.55494136 -16.15539679 3.49822603 -11.4765625 0.23046875 C-19.84884607 -5.35105363 -30.64752146 -3.30114767 -39.4765625 0.23046875 Z M-13.2890625 6.60546875 C-13.88654297 6.94835937 -14.48402344 7.29125 -15.09960938 7.64453125 C-16.56802727 8.49033996 -18.02364922 9.35829533 -19.4765625 10.23046875 C-18.04680905 13.08997564 -16.16472543 13.49551191 -13.2890625 14.85546875 C-7.70888232 17.56182264 -2.35316312 20.52909577 2.97729492 23.68994141 C6.04294119 25.6195138 6.04294119 25.6195138 9.5234375 26.23046875 C8.71354687 18.13156249 4.68204972 10.59208409 -1.4765625 5.23046875 C-6.1810273 2.31045612 -8.92659293 3.95977929 -13.2890625 6.60546875 Z M-48.0625 6.69921875 C-54.69976984 14.23498363 -57.84644467 20.1485835 -58.4765625 30.23046875 C-53.8565625 32.54046875 -49.2365625 34.85046875 -44.4765625 37.23046875 C-44.4765625 26.67046875 -44.4765625 16.11046875 -44.4765625 5.23046875 C-46.59226104 5.00397538 -46.59226104 5.00397538 -48.0625 6.69921875 Z M-32.6015625 18.23046875 C-33.26027344 18.61203125 -33.91898438 18.99359375 -34.59765625 19.38671875 C-36.22618998 20.33079627 -37.85166907 21.28013943 -39.4765625 22.23046875 C-39.4765625 23.88046875 -39.4765625 25.53046875 -39.4765625 27.23046875 C-36.41808402 27.77419826 -33.58883445 28.23046875 -30.4765625 28.23046875 C-29.8578125 27.71484375 -29.2390625 27.19921875 -28.6015625 26.66796875 C-26.4765625 25.23046875 -26.4765625 25.23046875 -23.9140625 25.41796875 C-21.4765625 26.23046875 -21.4765625 26.23046875 -18.4765625 28.23046875 C-16.13774112 27.93811608 -13.8037225 27.60447661 -11.4765625 27.23046875 C-10.4865625 27.56046875 -9.4965625 27.89046875 -8.4765625 28.23046875 C-8.4765625 26.25046875 -8.4765625 24.27046875 -8.4765625 22.23046875 C-10.93226425 20.89208142 -13.39086166 19.55960643 -15.8515625 18.23046875 C-16.55023438 17.84890625 -17.24890625 17.46734375 -17.96875 17.07421875 C-24.63022787 13.48726913 -26.34847013 14.56528986 -32.6015625 18.23046875 Z M-3.4765625 25.23046875 C-3.4765625 36.12046875 -3.4765625 47.01046875 -3.4765625 58.23046875 C3.79417372 51.99840914 9.04106645 45.61892581 10.6484375 35.91796875 C9.22752214 31.26052396 7.69120861 30.68188809 3.5859375 28.23046875 C0.23815139 26.19858765 0.23815139 26.19858765 -3.4765625 25.23046875 Z M-32.6015625 34.23046875 C-33.58962891 34.94589844 -33.58962891 34.94589844 -34.59765625 35.67578125 C-36.2270123 36.85647404 -37.85218576 38.04293484 -39.4765625 39.23046875 C-34.90628713 44.07968112 -30.14282744 47.95138857 -23.4765625 49.23046875 C-18.22444871 47.81551572 -13.78680296 44.43126862 -9.4765625 41.23046875 C-10.82441777 37.18690294 -13.5215326 35.81795939 -16.9140625 33.54296875 C-17.51283203 33.12724609 -18.11160156 32.71152344 -18.72851562 32.28320312 C-25.11795861 27.92578904 -26.79138512 29.9735071 -32.6015625 34.23046875 Z M-57.4765625 36.23046875 C-57.89428708 41.38240523 -56.75690337 44.21602773 -54.1015625 48.60546875 C-53.47507813 49.66507813 -52.84859375 50.7246875 -52.203125 51.81640625 C-51.63335937 52.61304687 -51.06359375 53.4096875 -50.4765625 54.23046875 C-49.8165625 54.23046875 -49.1565625 54.23046875 -48.4765625 54.23046875 C-48.1465625 55.22046875 -47.8165625 56.21046875 -47.4765625 57.23046875 C-46.8165625 57.23046875 -46.1565625 57.23046875 -45.4765625 57.23046875 C-45.4765625 57.89046875 -45.4765625 58.55046875 -45.4765625 59.23046875 C-43.79190557 60.07343545 -43.79190557 60.07343545 -41.4765625 60.23046875 C-38.36128764 58.81770802 -38.36128764 58.81770802 -35.2265625 56.79296875 C-34.14890625 56.13425781 -33.07125 55.47554687 -31.9609375 54.796875 C-30.73117188 54.02150391 -30.73117188 54.02150391 -29.4765625 53.23046875 C-33.1060717 48.97960336 -37.62228031 46.75407596 -42.4765625 44.16796875 C-44.0822253 43.30486087 -45.68644345 42.43905897 -47.2890625 41.5703125 C-47.99675781 41.19253662 -48.70445312 40.81476074 -49.43359375 40.42553711 C-51.4765625 39.23046875 -51.4765625 39.23046875 -53.61328125 37.58422852 C-55.36237667 36.0345397 -55.36237667 36.0345397 -57.4765625 36.23046875 Z M-16.2890625 50.29296875 C-20.21621103 52.67668407 -24.13965611 55.05804257 -28.140625 57.31640625 C-29.22085938 57.92742187 -30.30109375 58.5384375 -31.4140625 59.16796875 C-32.39246094 59.71324219 -33.37085938 60.25851563 -34.37890625 60.8203125 C-35.07113281 61.28566406 -35.76335937 61.75101563 -36.4765625 62.23046875 C-36.4765625 62.89046875 -36.4765625 63.55046875 -36.4765625 64.23046875 C-26.17848886 67.81240741 -18.44823886 66.3214129 -8.4765625 62.23046875 C-8.4765625 56.95046875 -8.4765625 51.67046875 -8.4765625 46.23046875 C-11.03337533 46.23046875 -14.08345649 48.94966442 -16.2890625 50.29296875 Z " fill="#8D7C43" transform="translate(181.4765625,41.76953125)"/>
<path d="M0 0 C1.73062746 0 3.46166893 -0.01481291 5.19140625 -0.0703125 C5.97386719 -0.08835937 6.75632813 -0.10640625 7.5625 -0.125 C8.34753906 -0.14820312 9.13257813 -0.17140625 9.94140625 -0.1953125 C12 0 12 0 14 2 C14.33 1.34 14.66 0.68 15 0 C16.9375 -0.6875 16.9375 -0.6875 19 -1 C19.66 -0.67 20.32 -0.34 21 0 C22.2375 -0.2475 22.2375 -0.2475 23.5 -0.5 C26 -1 26 -1 28 0 C29.4540625 -0.2475 29.4540625 -0.2475 30.9375 -0.5 C34 -1 34 -1 37 0 C38.33525717 0.07973476 39.67412083 0.10771338 41.01171875 0.09765625 C41.76904297 0.09443359 42.52636719 0.09121094 43.30664062 0.08789062 C44.48516602 0.07532227 44.48516602 0.07532227 45.6875 0.0625 C46.88342773 0.05573242 46.88342773 0.05573242 48.10351562 0.04882812 C50.06904257 0.0370585 52.03453085 0.01912348 54 0 C54.495 0.99 54.495 0.99 55 2 C55.556875 1.484375 56.11375 0.96875 56.6875 0.4375 C59 -1 59 -1 61.625 -0.8125 C64 0 64 0 66 2 C66.33 1.34 66.66 0.68 67 0 C68.98 0 70.96 0 73 0 C73.495 1.485 73.495 1.485 74 3 C74.33 2.01 74.66 1.02 75 0 C75.99 -0.33 76.98 -0.66 78 -1 C79 0 79 0 79.11352539 2.31665039 C79.10567017 3.81699829 79.10567017 3.81699829 79.09765625 5.34765625 C79.09282227 6.96704102 79.09282227 6.96704102 79.08789062 8.61914062 C79.07532227 10.32360352 79.07532227 10.32360352 79.0625 12.0625 C79.05798828 13.20267578 79.05347656 14.34285156 79.04882812 15.51757812 C79.03699747 18.34510351 79.0205141 21.1725264 79 24 C75 24 71 24 67 24 C66.505 23.01 66.505 23.01 66 22 C65.67 22.66 65.34 23.32 65 24 C59.76744186 25.39534884 59.76744186 25.39534884 56.9375 23.9375 C54.90889179 22.68173705 54.90889179 22.68173705 52.25 23.875 C51.5075 24.24625 50.765 24.6175 50 25 C49 24 49 24 48.88647461 22.14233398 C48.89432983 20.95619507 48.89432983 20.95619507 48.90234375 19.74609375 C48.90717773 18.46508789 48.90717773 18.46508789 48.91210938 17.15820312 C48.92467773 15.81145508 48.92467773 15.81145508 48.9375 14.4375 C48.94201172 13.53580078 48.94652344 12.63410156 48.95117188 11.70507812 C48.96299775 9.46998686 48.9794778 7.23502563 49 5 C48.01 5 47.02 5 46 5 C46 11.27 46 17.54 46 24 C44.35 24 42.7 24 41 24 C41 17.73 41 11.46 41 5 C40.01 5 39.02 5 38 5 C37.67 6.65 37.34 8.3 37 10 C35.68 9.67 34.36 9.34 33 9 C33 7.68 33 6.36 33 5 C32.34 5 31.68 5 31 5 C31.495 11.435 31.495 11.435 32 18 C32.33 16.68 32.66 15.36 33 14 C34.65 14 36.3 14 38 14 C38.48148148 20.25925926 38.48148148 20.25925926 36.375 23.5 C34 25 34 25 30.75 24.75 C29.8425 24.5025 28.935 24.255 28 24 C28 23.34 28 22.68 28 22 C26.948125 22.7734375 26.948125 22.7734375 25.875 23.5625 C22.33752209 25.33123895 20.75246222 25.06047845 17 24 C16.01 23.34 15.02 22.68 14 22 C13.34 22.66 12.68 23.32 12 24 C9.6875 24.1953125 9.6875 24.1953125 7 24.125 C6.113125 24.10695312 5.22625 24.08890625 4.3125 24.0703125 C3.549375 24.04710937 2.78625 24.02390625 2 24 C-0.17109352 23.93730924 -0.17109352 23.93730924 -2.9375 24.5625 C-6 25 -6 25 -9 24 C-9.99 24.2475 -9.99 24.2475 -11 24.5 C-13 25 -13 25 -16 24 C-16.99 24.33 -17.98 24.66 -19 25 C-19.99 24.67 -20.98 24.34 -22 24 C-22 21.03 -22 18.06 -22 15 C-23.65 15.33 -25.3 15.66 -27 16 C-27 18.64 -27 21.28 -27 24 C-27.99 24.33 -28.98 24.66 -30 25 C-30.66 24.67 -31.32 24.34 -32 24 C-32 16.08 -32 8.16 -32 0 C-28.74125 -0.061875 -25.4825 -0.12375 -22.125 -0.1875 C-21.09906738 -0.21481201 -20.07313477 -0.24212402 -19.01611328 -0.27026367 C-18.20899902 -0.27775635 -17.40188477 -0.28524902 -16.5703125 -0.29296875 C-15.74289551 -0.3086792 -14.91547852 -0.32438965 -14.06298828 -0.34057617 C-13.38220215 -0.22818604 -12.70141602 -0.1157959 -12 0 C-11.34 0.99 -10.68 1.98 -10 3 C-9.54625 2.525625 -9.0925 2.05125 -8.625 1.5625 C-5.54215536 -1.40177369 -3.99609806 -0.87719226 0 0 Z M20 3 C20 7.95 20 12.9 20 18 C20.66 18 21.32 18 22 18 C22.05429959 16.25034642 22.09292823 14.50020213 22.125 12.75 C22.14820313 11.77546875 22.17140625 10.8009375 22.1953125 9.796875 C22.15705089 6.67440365 22.15705089 6.67440365 20 3 Z M-16 5 C-15 9 -15 9 -15 9 Z M8 5 C8 9.62 8 14.24 8 19 C8.33 19 8.66 19 9 19 C9 14.38 9 9.76 9 5 C8.67 5 8.34 5 8 5 Z M-27 6 C-26 9 -26 9 -26 9 Z M-4 6 C-5.28612676 7.05978933 -5.28612676 7.05978933 -5.09765625 9.50390625 C-5.08605469 10.51324219 -5.07445312 11.52257812 -5.0625 12.5625 C-5.05347656 13.57441406 -5.04445312 14.58632812 -5.03515625 15.62890625 C-5.02355469 16.41136719 -5.01195312 17.19382813 -5 18 C-4.01 18.495 -4.01 18.495 -3 19 C-3 14.71 -3 10.42 -3 6 C-3.33 6 -3.66 6 -4 6 Z M60 6 C60 10.29 60 14.58 60 19 C62.60704898 16.39295102 62.23905333 14.52661759 62.265625 10.97265625 C62.10382514 8.68047674 62.10382514 8.68047674 60 6 Z M-11 12 C-10 14 -10 14 -10 14 Z M2 15 C3 18 3 18 3 18 Z " fill="#C6E2D9" transform="translate(179,123)"/>
<path d="M0 0 C0.94875 0.165 1.8975 0.33 2.875 0.5 C6.89293487 1.14286958 9.99727642 0.69612584 14 0 C14 0.66 14 1.32 14 2 C14.99 1.67 15.98 1.34 17 1 C18.68624496 0.93167565 20.37501963 0.91513281 22.0625 0.9375 C23.37927734 0.95103516 23.37927734 0.95103516 24.72265625 0.96484375 C25.47417969 0.97644531 26.22570312 0.98804687 27 1 C27.66 1 28.32 1 29 1 C31 1 33 1 35 1 C35.495 5.95 35.495 5.95 36 11 C36.33 8.03 36.66 5.06 37 2 C38.97746603 1.26919734 40.98072489 0.60578253 43 0 C43.99 0.495 43.99 0.495 45 1 C45.64741485 3.90742722 46.17397904 6.74896037 46.625 9.6875 C46.82609375 10.8930957 46.82609375 10.8930957 47.03125 12.12304688 C47.72632544 16.46017577 48.156664 20.59204472 48 25 C46.515 25.495 46.515 25.495 45 26 C44.01 25.34 43.02 24.68 42 24 C42 23.34 42 22.68 42 22 C41.34 22 40.68 22 40 22 C40 22.99 40 23.98 40 25 C32.18686333 26.21238328 24.85353598 25.67792807 17 25 C14.90349583 24.91720822 14.90349583 24.91720822 12.5625 25.625 C10 26 10 26 7 24 C6.505 24.495 6.505 24.495 6 25 C4.21484375 25.3515625 4.21484375 25.3515625 1.9375 25.625 C1.20402344 25.72039062 0.47054687 25.81578125 -0.28515625 25.9140625 C-3 26 -3 26 -6.5 25.4921875 C-12.31146569 24.68877164 -18.10022857 25.18447181 -23.9375 25.5 C-26.19637454 25.6192219 -28.45548631 25.73405947 -30.71484375 25.84375 C-31.70605225 25.89724609 -32.69726074 25.95074219 -33.71850586 26.00585938 C-36 26 -36 26 -37 25 C-37.92848842 16.91183419 -38.27271732 9.06054302 -37 1 C-35.33388095 0.957279 -33.66617115 0.95936168 -32 1 C-31 2 -31 2 -30.9375 4.5625 C-30.958125 5.366875 -30.97875 6.17125 -31 7 C-30.34 7 -29.68 7 -29 7 C-29.020625 6.195625 -29.04125 5.39125 -29.0625 4.5625 C-29 2 -29 2 -28 1 C-25.13732433 0.92674832 -22.299281 0.90761795 -19.4375 0.9375 C-18.63119141 0.94201172 -17.82488281 0.94652344 -16.99414062 0.95117188 C-14.99606244 0.96299482 -12.99802217 0.98093086 -11 1 C-11 2.65 -11 4.3 -11 6 C-12.65 6 -14.3 6 -16 6 C-15.360625 6.598125 -14.72125 7.19625 -14.0625 7.8125 C-12 10 -12 10 -11 13 C-10.67 9.04 -10.34 5.08 -10 1 C-8.02 1 -6.04 1 -4 1 C-3.505 2.98 -3.505 2.98 -3 5 C-2.01 3.35 -1.02 1.7 0 0 Z M11 7 C11 8.65 11 10.3 11 12 C11.33 12 11.66 12 12 12 C12 10.35 12 8.7 12 7 C11.67 7 11.34 7 11 7 Z M23 7 C22.67 7.99 22.34 8.98 22 10 C22.66 10 23.32 10 24 10 C23.67 9.01 23.34 8.02 23 7 Z M11 13 C11 14.98 11 16.96 11 19 C11.33 19 11.66 19 12 19 C12 17.02 12 15.04 12 13 C11.67 13 11.34 13 11 13 Z M-11 14 C-11 16.97 -11 19.94 -11 23 C-10.67 23 -10.34 23 -10 23 C-10 20.03 -10 17.06 -10 14 C-10.33 14 -10.66 14 -11 14 Z M22 19 C23 22 23 22 23 22 Z " fill="#B4C5C1" transform="translate(94,122)"/>
<path d="M0 0 C0.84755859 0.04833984 1.69511719 0.09667969 2.56835938 0.14648438 C3.44943359 0.20255859 4.33050781 0.25863281 5.23828125 0.31640625 C6.13095703 0.36861328 7.02363281 0.42082031 7.94335938 0.47460938 C10.14619685 0.60418805 12.34856998 0.73914871 14.55078125 0.87890625 C15.21078125 2.85890625 15.87078125 4.83890625 16.55078125 6.87890625 C16.88078125 4.89890625 17.21078125 2.91890625 17.55078125 0.87890625 C19.15457466 0.82474437 20.75889531 0.78603987 22.36328125 0.75390625 C23.25660156 0.73070312 24.14992187 0.7075 25.0703125 0.68359375 C27.55078125 0.87890625 27.55078125 0.87890625 30.55078125 2.87890625 C31.54078125 2.21890625 32.53078125 1.55890625 33.55078125 0.87890625 C35.22732854 1.1583308 36.89686279 1.48718872 38.55078125 1.87890625 C38.88078125 1.54890625 39.21078125 1.21890625 39.55078125 0.87890625 C42.02640207 0.69869996 44.44771405 0.6009518 46.92578125 0.56640625 C47.6115625 0.53740234 48.29734375 0.50839844 49.00390625 0.47851562 C51.01171875 0.453125 51.01171875 0.453125 54.55078125 0.87890625 C56.52734375 2.8984375 56.52734375 2.8984375 57.55078125 4.87890625 C58.21078125 3.55890625 58.87078125 2.23890625 59.55078125 0.87890625 C60.12828125 1.04390625 60.70578125 1.20890625 61.30078125 1.37890625 C63.81742494 2.02352656 63.81742494 2.02352656 67.55078125 1.87890625 C67.88078125 1.54890625 68.21078125 1.21890625 68.55078125 0.87890625 C70.55032871 0.83636269 72.55119761 0.83809842 74.55078125 0.87890625 C75.21078125 0.87890625 75.87078125 0.87890625 76.55078125 0.87890625 C79.55078125 0.87890625 82.55078125 0.87890625 85.55078125 0.87890625 C84.95153901 5.07360196 83.97578184 8.88890459 82.55078125 12.87890625 C81.56078125 12.87890625 80.57078125 12.87890625 79.55078125 12.87890625 C79.05578125 11.39390625 79.05578125 11.39390625 78.55078125 9.87890625 C78.14199738 10.36655457 77.7332135 10.85420288 77.31204224 11.35662842 C75.14780961 13.2271992 74.19251801 13.24932085 71.37060547 13.23535156 C70.53318817 13.23835266 69.69577087 13.24135376 68.83297729 13.2444458 C67.48286057 13.2259256 67.48286057 13.2259256 66.10546875 13.20703125 C65.17985138 13.20515808 64.25423401 13.20328491 63.30056763 13.20135498 C61.34536127 13.19463429 59.39016836 13.18071944 57.43505859 13.16015625 C54.43053806 13.12895565 51.42654158 13.11918143 48.421875 13.11328125 C46.52473314 13.10411332 44.62759664 13.09373821 42.73046875 13.08203125 C41.82634247 13.07778137 40.92221619 13.07353149 39.99069214 13.06915283 C33.66793772 12.99606272 33.66793772 12.99606272 32.55078125 11.87890625 C32.51014293 10.2127351 32.50806025 8.5450253 32.55078125 6.87890625 C32.22078125 7.53890625 31.89078125 8.19890625 31.55078125 8.87890625 C30.89078125 9.20890625 30.23078125 9.53890625 29.55078125 9.87890625 C29.55078125 10.86890625 29.55078125 11.85890625 29.55078125 12.87890625 C28.97328125 12.69328125 28.39578125 12.50765625 27.80078125 12.31640625 C25.62628243 11.72886833 25.62628243 11.72886833 23.80078125 12.31640625 C19.38795749 13.41961219 14.86778755 13.31790835 10.55078125 11.87890625 C10.22078125 12.20890625 9.89078125 12.53890625 9.55078125 12.87890625 C5.88733514 13.01458944 3.04462404 13.04352051 -0.44921875 11.87890625 C-1.76921875 11.87890625 -3.08921875 11.87890625 -4.44921875 11.87890625 C-5.14887318 10.61472379 -5.83356638 9.34225223 -6.51171875 8.06640625 C-6.89457031 7.35871094 -7.27742187 6.65101563 -7.671875 5.921875 C-8.44921875 3.87890625 -8.44921875 3.87890625 -7.44921875 0.87890625 C-4.52252184 -0.09665939 -3.00860554 -0.18172785 0 0 Z M5.55078125 3.87890625 C5.22078125 4.53890625 4.89078125 5.19890625 4.55078125 5.87890625 C5.87078125 6.20890625 7.19078125 6.53890625 8.55078125 6.87890625 C7.56078125 5.88890625 6.57078125 4.89890625 5.55078125 3.87890625 Z M64.55078125 4.87890625 C65.55078125 6.87890625 65.55078125 6.87890625 65.55078125 6.87890625 Z M70.55078125 4.87890625 C70.55078125 5.86890625 70.55078125 6.85890625 70.55078125 7.87890625 C71.87078125 7.21890625 73.19078125 6.55890625 74.55078125 5.87890625 C73.23078125 5.54890625 71.91078125 5.21890625 70.55078125 4.87890625 Z M76.55078125 5.87890625 C75.89078125 6.53890625 75.23078125 7.19890625 74.55078125 7.87890625 C75.54078125 7.87890625 76.53078125 7.87890625 77.55078125 7.87890625 C77.22078125 7.21890625 76.89078125 6.55890625 76.55078125 5.87890625 Z " fill="#78794B" transform="translate(158.44921875,152.12109375)"/>
<path d="M0 0 C1.875 1.5 1.875 1.5 3 3 C3.66 2.01 4.32 1.02 5 0 C8.875 0.875 8.875 0.875 10 2 C10.33 1.34 10.66 0.68 11 0 C16.94 0 22.88 0 29 0 C29.495 2.475 29.495 2.475 30 5 C30.66 3.35 31.32 1.7 32 0 C39.33333333 0 46.66666667 0 54 0 C54.8765625 -0.02320313 55.753125 -0.04640625 56.65625 -0.0703125 C58.06390625 -0.09738281 58.06390625 -0.09738281 59.5 -0.125 C60.4384375 -0.14820313 61.376875 -0.17140625 62.34375 -0.1953125 C65.0792391 0.0058264 66.6686485 0.60338849 69 2 C69.21492303 5.15220449 69.34050916 7.34589478 67.86328125 10.18359375 C66 12 66 12 63.1875 12.42578125 C62.135625 12.38839844 61.08375 12.35101563 60 12.3125 C58.948125 12.28800781 57.89625 12.26351562 56.8125 12.23828125 C54 12 54 12 51 11 C50.30132812 11.14179688 49.60265625 11.28359375 48.8828125 11.4296875 C44.86997124 12.22355583 40.95478812 12.14464585 36.875 12.125 C36.06417969 12.12886719 35.25335938 12.13273438 34.41796875 12.13671875 C33.63808594 12.13542969 32.85820313 12.13414062 32.0546875 12.1328125 C31.34812012 12.13168457 30.64155273 12.13055664 29.91357422 12.12939453 C28 12 28 12 25 11 C23.68 11 22.36 11 21 11 C20.34 10.01 19.68 9.02 19 8 C17.68 8 16.36 8 15 8 C14.67 9.32 14.34 10.64 14 12 C10.56294295 12.14505175 7.12666967 12.23398014 3.6875 12.3125 C2.71103516 12.35439453 1.73457031 12.39628906 0.72851562 12.43945312 C-1.9345531 12.48521032 -4.378527 12.47550287 -7 12 C-9.17578125 9.6484375 -9.17578125 9.6484375 -10 7 C-9.875 4.3125 -9.875 4.3125 -9 2 C-5.53076119 -0.31282587 -4.07794425 -0.42478586 0 0 Z M-5 4 C-5 4.99 -5 5.98 -5 7 C-3.02 7 -1.04 7 1 7 C-0.31201173 5.43750191 -0.31201173 5.43750191 -2 4 C-2.99 4 -3.98 4 -5 4 Z M20 4 C21 6 21 6 21 6 Z M60 4 C64 5 64 5 64 5 Z M10 5 C11 7 11 7 11 7 Z " fill="#767848" transform="translate(80,153)"/>
<path d="M0 0 C2.4375 0.75 2.4375 0.75 4.4375 2.75 C4.7675 2.09 5.0975 1.43 5.4375 0.75 C7.4175 0.75 9.3975 0.75 11.4375 0.75 C11.9325 2.235 11.9325 2.235 12.4375 3.75 C12.7675 2.76 13.0975 1.77 13.4375 0.75 C14.4275 0.42 15.4175 0.09 16.4375 -0.25 C17.4375 0.75 17.4375 0.75 17.55102539 3.06665039 C17.54578857 4.06688232 17.54055176 5.06711426 17.53515625 6.09765625 C17.53193359 7.17724609 17.52871094 8.25683594 17.52539062 9.36914062 C17.51282227 11.07360352 17.51282227 11.07360352 17.5 12.8125 C17.49548828 13.95267578 17.49097656 15.09285156 17.48632812 16.26757812 C17.47449747 19.09510351 17.4580141 21.9225264 17.4375 24.75 C13.4375 24.75 9.4375 24.75 5.4375 24.75 C5.1075 24.09 4.7775 23.43 4.4375 22.75 C4.1075 23.41 3.7775 24.07 3.4375 24.75 C-1.79505814 26.14534884 -1.79505814 26.14534884 -4.625 24.6875 C-6.65360821 23.43173705 -6.65360821 23.43173705 -9.3125 24.625 C-10.055 24.99625 -10.7975 25.3675 -11.5625 25.75 C-12.5625 24.75 -12.5625 24.75 -12.67602539 22.89233398 C-12.67078857 22.10157471 -12.66555176 21.31081543 -12.66015625 20.49609375 C-12.65693359 19.64208984 -12.65371094 18.78808594 -12.65039062 17.90820312 C-12.64201172 17.01037109 -12.63363281 16.11253906 -12.625 15.1875 C-12.62048828 14.28580078 -12.61597656 13.38410156 -12.61132812 12.45507812 C-12.59950225 10.21998686 -12.5830222 7.98502563 -12.5625 5.75 C-13.8825 5.75 -15.2025 5.75 -16.5625 5.75 C-16.5625 11.69 -16.5625 17.63 -16.5625 23.75 C-17.5525 23.75 -18.5425 23.75 -19.5625 23.75 C-19.5625 17.48 -19.5625 11.21 -19.5625 4.75 C-20.8825 4.75 -22.2025 4.75 -23.5625 4.75 C-23.5625 3.76 -23.5625 2.77 -23.5625 1.75 C-17.5625 1.75 -11.5625 1.75 -5.5625 1.75 C-2.5625 -0.25 -2.5625 -0.25 0 0 Z M-1.5625 6.75 C-1.5625 11.04 -1.5625 15.33 -1.5625 19.75 C1.04454898 17.14295102 0.67655333 15.27661759 0.703125 11.72265625 C0.54132514 9.43047674 0.54132514 9.43047674 -1.5625 6.75 Z " fill="#A5B6B2" transform="translate(240.5625,122.25)"/>
<path d="M0 0 C0.33 0.99 0.66 1.98 1 3 C2.65 2.67 4.3 2.34 6 2 C4.9171875 2.99 4.9171875 2.99 3.8125 4 C-2.89698335 10.76650446 -5.79047196 18.91638472 -8 28 C-7.175 28.2475 -6.35 28.495 -5.5 28.75 C-2.02812562 29.98995514 1.04237484 31.52517845 4.265625 33.29296875 C4.83796875 33.52628906 5.4103125 33.75960937 6 34 C6.99 33.505 6.99 33.505 8 33 C7.33333333 35.66666667 6.66666667 38.33333333 6 41 C9.465 41.495 9.465 41.495 13 42 C12.34 40.68 11.68 39.36 11 38 C15.95 40.64 20.9 43.28 26 46 C26 46.66 26 47.32 26 48 C28.31 47.67 30.62 47.34 33 47 C31.51697865 51.75439197 27.56174619 53.41924097 23.5 55.75 C22.81035156 56.16121094 22.12070313 56.57242188 21.41015625 56.99609375 C16.29054194 60 16.29054194 60 14 60 C14 60.66 14 61.32 14 62 C17.465 62.495 17.465 62.495 21 63 C21 63.33 21 63.66 21 64 C18.36 64 15.72 64 13 64 C14.32 64.99 15.64 65.98 17 67 C8.95996623 66.57684033 2.20635814 61.60269724 -3.25 56 C-10.58626793 47.08315402 -14.05032704 37.20199867 -13.51171875 25.67578125 C-12.0309419 15.03905595 -7.68431203 7.37922768 0 0 Z M-7 34 C-7.41772458 39.15193648 -6.28034087 41.98555898 -3.625 46.375 C-2.99851563 47.43460938 -2.37203125 48.49421875 -1.7265625 49.5859375 C-1.15679687 50.38257812 -0.58703125 51.17921875 0 52 C0.66 52 1.32 52 2 52 C2.33 52.99 2.66 53.98 3 55 C3.66 55 4.32 55 5 55 C5 55.66 5 56.32 5 57 C6.68465693 57.8429667 6.68465693 57.8429667 9 58 C12.11527486 56.58723927 12.11527486 56.58723927 15.25 54.5625 C16.32765625 53.90378906 17.4053125 53.24507812 18.515625 52.56640625 C19.74539062 51.79103516 19.74539062 51.79103516 21 51 C17.3704908 46.74913461 12.85428219 44.52360721 8 41.9375 C6.3943372 41.07439212 4.79011905 40.20859022 3.1875 39.33984375 C2.47980469 38.96206787 1.77210938 38.58429199 1.04296875 38.19506836 C-1 37 -1 37 -3.13671875 35.35375977 C-4.88581417 33.80407095 -4.88581417 33.80407095 -7 34 Z " fill="#927C43" transform="translate(131,44)"/>
<path d="M0 0 C1.66611905 -0.042721 3.33382885 -0.04063832 5 0 C6 1 6 1 6.0625 3.5625 C6.041875 4.366875 6.02125 5.17125 6 6 C6.66 6 7.32 6 8 6 C7.979375 5.195625 7.95875 4.39125 7.9375 3.5625 C8 1 8 1 9 0 C11.86267567 -0.07325168 14.700719 -0.09238205 17.5625 -0.0625 C18.36880859 -0.05798828 19.17511719 -0.05347656 20.00585938 -0.04882812 C22.00393756 -0.03700518 24.00197783 -0.01906914 26 0 C26 1.65 26 3.3 26 5 C24.35 5 22.7 5 21 5 C21.639375 5.5775 22.27875 6.155 22.9375 6.75 C26.82204749 10.98768817 26.17763258 15.49338989 26 21 C25.67 21.66 25.34 22.32 25 23 C23.22167969 23.41064453 23.22167969 23.41064453 20.921875 23.6328125 C19.67470703 23.75849609 19.67470703 23.75849609 18.40234375 23.88671875 C17.52707031 23.96535156 16.65179688 24.04398438 15.75 24.125 C14.46029297 24.25455078 14.46029297 24.25455078 13.14453125 24.38671875 C4.60099998 25.21606 4.60099998 25.21606 1 25 C-1.88589431 22.11410569 -0.87247012 13.10975339 -1 9 C-0.83593389 5.93076321 -0.47995276 3.03970079 0 0 Z " fill="#D8E6E2" transform="translate(57,123)"/>
<path d="M0 0 C1.32 0.33 2.64 0.66 4 1 C3.67 1.99 3.34 2.98 3 4 C2.93878457 6.63591805 2.93215488 9.24446227 2.97265625 11.87890625 C2.98529703 13.45507597 2.99765839 15.03124796 3.00976562 16.60742188 C3.03464129 19.09178704 3.06268125 21.5760352 3.09594727 24.06030273 C3.12606001 26.4581784 3.14389193 28.85590242 3.16015625 31.25390625 C3.17361588 31.99975479 3.1870755 32.74560333 3.20094299 33.51405334 C3.20989175 35.34390665 3.11369441 37.17366028 3 39 C2.34 39.66 1.68 40.32 1 41 C1 35.06 1 29.12 1 23 C0.01 23 -0.98 23 -2 23 C-2.33 22.01 -2.66 21.02 -3 20 C-5.05257903 18.26922361 -7.06097133 16.72269407 -9.25 15.1875 C-9.82363281 14.75501953 -10.39726562 14.32253906 -10.98828125 13.87695312 C-12.89438513 12.47100613 -12.89438513 12.47100613 -16 11 C-20.90908935 11.96560166 -24.74616079 15.59820484 -28.6953125 18.5390625 C-31 20 -31 20 -34 20 C-34.02712066 18.56260487 -34.04645067 17.12506137 -34.0625 15.6875 C-34.07410156 14.88699219 -34.08570313 14.08648437 -34.09765625 13.26171875 C-34 11 -34 11 -33 8 C-30.08517222 7.19032562 -28.53886783 6.78154007 -25.6875 7.9375 C-25.130625 8.288125 -24.57375 8.63875 -24 9 C-23.278125 8.319375 -22.55625 7.63875 -21.8125 6.9375 C-19 5 -19 5 -16.375 5.125 C-14 6 -14 6 -11 8 C-8.66117862 7.70764733 -6.32716 7.37400786 -4 7 C-3.01 7.33 -2.02 7.66 -1 8 C-0.67 5.36 -0.34 2.72 0 0 Z " fill="#AC894E" transform="translate(174,61)"/>
<path d="M0 0 C1.0828125 0.2475 1.0828125 0.2475 2.1875 0.5 C5.39806339 1.07076682 7.80959775 0.55485256 11 0 C11.99 0.33 12.98 0.66 14 1 C15.33525717 1.07973476 16.67412083 1.10771338 18.01171875 1.09765625 C18.76904297 1.09443359 19.52636719 1.09121094 20.30664062 1.08789062 C21.48516602 1.07532227 21.48516602 1.07532227 22.6875 1.0625 C23.88342773 1.05573242 23.88342773 1.05573242 25.10351562 1.04882812 C27.06904257 1.0370585 29.03453085 1.01912348 31 1 C29.68 1.99 28.36 2.98 27 4 C26.67 3.34 26.34 2.68 26 2 C22.37 2 18.74 2 15 2 C15 2.99 15 3.98 15 5 C16.32 5 17.64 5 19 5 C19 11.27 19 17.54 19 24 C19.99 24 20.98 24 22 24 C22 18.06 22 12.12 22 6 C22.33 6 22.66 6 23 6 C23 12.27 23 18.54 23 25 C21.35 25 19.7 25 18 25 C18 18.73 18 12.46 18 6 C17.01 6 16.02 6 15 6 C14.67 7.65 14.34 9.3 14 11 C12.68 10.67 11.36 10.34 10 10 C10 8.68 10 7.36 10 6 C9.34 6 8.68 6 8 6 C8.33 10.29 8.66 14.58 9 19 C9.33 17.68 9.66 16.36 10 15 C11.65 15 13.3 15 15 15 C15.48148148 21.25925926 15.48148148 21.25925926 13.375 24.5 C11 26 11 26 7.75 25.75 C6.8425 25.5025 5.935 25.255 5 25 C5 24.34 5 23.68 5 23 C4.34 23 3.68 23 3 23 C2.98541748 22.40461426 2.97083496 21.80922852 2.95581055 21.19580078 C2.88145656 18.50486949 2.78475813 15.81519667 2.6875 13.125 C2.66494141 12.18785156 2.64238281 11.25070313 2.61914062 10.28515625 C2.58369141 9.38925781 2.54824219 8.49335938 2.51171875 7.5703125 C2.48553467 6.74289551 2.45935059 5.91547852 2.43237305 5.06298828 C2.16903363 2.60672068 2.16903363 2.60672068 -1 1 C-0.67 0.67 -0.34 0.34 0 0 Z " fill="#99AEA7" transform="translate(202,122)"/>
<path d="M0 0 C2.64 0 5.28 0 8 0 C8.66 0.66 9.32 1.32 10 2 C10.33 1.67 10.66 1.34 11 1 C12.66617115 0.95936168 14.33388095 0.957279 16 1 C16.33 1.99 16.66 2.98 17 4 C16.34 4 15.68 4 15 4 C14.67 6.64 14.34 9.28 14 12 C15.32 11.67 16.64 11.34 18 11 C17.67 11.66 17.34 12.32 17 13 C16.34 13 15.68 13 15 13 C15 16.3 15 19.6 15 23 C13.68 23 12.36 23 11 23 C10.67 20.03 10.34 17.06 10 14 C8.35 14.66 6.7 15.32 5 16 C5 18.64 5 21.28 5 24 C4.01 24.33 3.02 24.66 2 25 C1.34 24.67 0.68 24.34 0 24 C0 16.08 0 8.16 0 0 Z M5 6 C6 9 6 9 6 9 Z " fill="#E9F2EF" transform="translate(147,123)"/>
<path d="M0 0 C0 0.66 0 1.32 0 2 C-1.98 2 -3.96 2 -6 2 C-6 2.99 -6 3.98 -6 5 C-6.66 5 -7.32 5 -8 5 C-8 10.28 -8 15.56 -8 21 C-6.02 20.67 -4.04 20.34 -2 20 C-2 20.99 -2 21.98 -2 23 C-2.99 23 -3.98 23 -5 23 C-5 23.99 -5 24.98 -5 26 C-5.66 26.33 -6.32 26.66 -7 27 C-8.7057327 32.61888419 -9.48646184 38.16188195 -10 44 C-9.34 44 -8.68 44 -8 44 C-7.01 45.98 -6.02 47.96 -5 50 C-7.64 49.34 -10.28 48.68 -13 48 C-12.67 45.69 -12.34 43.38 -12 41 C-12.33 41 -12.66 41 -13 41 C-13 30.44 -13 19.88 -13 9 C-14.65 9.33 -16.3 9.66 -18 10 C-18 8.68 -18 7.36 -18 6 C-16.80375 5.566875 -15.6075 5.13375 -14.375 4.6875 C-11.69663033 3.6937586 -9.29882647 2.63592913 -6.75 1.3125 C-4 0 -4 0 0 0 Z " fill="#A98743" transform="translate(150,37)"/>
<path d="M0 0 C1.65 0 3.3 0 5 0 C5.33 2.64 5.66 5.28 6 8 C6.66 8 7.32 8 8 8 C8.0928125 6.824375 8.0928125 6.824375 8.1875 5.625 C8.455625 4.75875 8.72375 3.8925 9 3 C10.65 2.34 12.3 1.68 14 1 C14 7.93 14 14.86 14 22 C8 21 8 21 6 20 C6 19.34 6 18.68 6 18 C4.29159719 19.63412443 3.06546953 20.86906094 2 23 C1.34 23 0.68 23 0 23 C0 15.41 0 7.82 0 0 Z " fill="#EDF3F1" transform="translate(85,123)"/>
<path d="M0 0 C0.99 0.04125 1.98 0.0825 3 0.125 C3.66 0.125 4.32 0.125 5 0.125 C8 0.125 11 0.125 14 0.125 C13.40075776 4.31969571 12.42500059 8.13499834 11 12.125 C10.01 12.125 9.02 12.125 8 12.125 C7.67 11.135 7.34 10.145 7 9.125 C6.59676514 9.61395752 6.19353027 10.10291504 5.77807617 10.60668945 C3.53597554 12.52123344 2.46150215 12.47657387 -0.44921875 12.41796875 C-1.29677734 12.40830078 -2.14433594 12.39863281 -3.01757812 12.38867188 C-4.33918945 12.3509668 -4.33918945 12.3509668 -5.6875 12.3125 C-6.58017578 12.29896484 -7.47285156 12.28542969 -8.39257812 12.27148438 C-10.59566166 12.23614079 -12.79752582 12.18680493 -15 12.125 C-15 10.475 -15 8.825 -15 7.125 C-14.01 6.795 -13.02 6.465 -12 6.125 C-11.67 4.475 -11.34 2.825 -11 1.125 C-10.05125 1.33125 -9.1025 1.5375 -8.125 1.75 C-7.09375 1.87375 -6.0625 1.9975 -5 2.125 C-3 0.125 -3 0.125 0 0 Z M-7 4.125 C-6 6.125 -6 6.125 -6 6.125 Z M-1 4.125 C-1 5.115 -1 6.105 -1 7.125 C0.32 6.465 1.64 5.805 3 5.125 C1.68 4.795 0.36 4.465 -1 4.125 Z M5 5.125 C4.34 5.785 3.68 6.445 3 7.125 C3.99 7.125 4.98 7.125 6 7.125 C5.67 6.465 5.34 5.805 5 5.125 Z " fill="#606842" transform="translate(230,152.875)"/>
<path d="M0 0 C0.66 0.33 1.32 0.66 2 1 C2 8.92 2 16.84 2 25 C0.35 25 -1.3 25 -3 25 C-5.42857143 17.57142857 -5.42857143 17.57142857 -4 14 C-4.99 14.66 -5.98 15.32 -7 16 C-7.2502157 19.08365871 -7.2502157 19.08365871 -7 22 C-7.66 22.33 -8.32 22.66 -9 23 C-9.97299156 18.14270355 -10.12038805 13.5499375 -10.0625 8.625 C-10.05798828 7.88894531 -10.05347656 7.15289062 -10.04882812 6.39453125 C-10.03715142 4.59631842 -10.01922011 2.79814803 -10 1 C-8.02 1 -6.04 1 -4 1 C-3.67 1.99 -3.34 2.98 -3 4 C-2.67 3.01 -2.34 2.02 -2 1 C-1.34 0.67 -0.68 0.34 0 0 Z " fill="#DBE6E3" transform="translate(256,122)"/>
<path d="M0 0 C3.30150582 3.30150582 3.093271 7.13685134 3.25 11.625 C3.06215807 23.15166411 -1.38678427 32.80142099 -9.09765625 41.31640625 C-11 43 -11 43 -13 43 C-13 42.01 -13 41.02 -13 40 C-14.32 40 -15.64 40 -17 40 C-17 28.78 -17 17.56 -17 6 C-16.67 6 -16.34 6 -16 6 C-15.67 16.56 -15.34 27.12 -15 38 C-6.99355118 28.84977278 -3.25317621 23.76247477 -4 12 C-3.01 12 -2.02 12 -1 12 C-1 12.99 -1 13.98 -1 15 C-0.34 15 0.32 15 1 15 C0.67 10.05 0.34 5.1 0 0 Z " fill="#84763E" transform="translate(194,61)"/>
<path d="M0 0 C3.3 0 6.6 0 10 0 C11.23402862 4.77092956 11.11265112 9.42469446 11.0625 14.3125 C11.05798828 15.14845703 11.05347656 15.98441406 11.04882812 16.84570312 C11.03710548 18.89716649 11.01917203 20.94859273 11 23 C9.68 22.67 8.36 22.34 7 22 C7 21.34 7 20.68 7 20 C6.34 20 5.68 20 5 20 C5 20.66 5 21.32 5 22 C3.35 22 1.7 22 0 22 C0 14.74 0 7.48 0 0 Z M5 5 C4.67 5.99 4.34 6.98 4 8 C4.66 8 5.32 8 6 8 C5.67 7.01 5.34 6.02 5 5 Z M4 17 C5 20 5 20 5 20 Z " fill="#E8F3F0" transform="translate(112,124)"/>
<path d="M0 0 C4.95 2.64 9.9 5.28 15 8 C15 8.66 15 9.32 15 10 C18.465 9.505 18.465 9.505 22 9 C20.51697865 13.75439197 16.56174619 15.41924097 12.5 17.75 C11.81035156 18.16121094 11.12070313 18.57242188 10.41015625 18.99609375 C5.29054194 22 5.29054194 22 3 22 C3 22.66 3 23.32 3 24 C5.31 24.33 7.62 24.66 10 25 C10 25.33 10 25.66 10 26 C7.36 26 4.72 26 2 26 C3.32 26.99 4.64 27.98 6 29 C1.78087253 28.5205537 -0.79663178 27.83374881 -4 25 C-2.68 25 -1.36 25 0 25 C0.66 23.35 1.32 21.7 2 20 C2.99 20 3.98 20 5 20 C5 19.34 5 18.68 5 18 C3.35 18.33 1.7 18.66 0 19 C2.76996146 15.92226505 5.30792344 14.46138437 9 12 C2.07 8.04 2.07 8.04 -5 4 C-1 3 -1 3 1 3 C0.67 2.01 0.34 1.02 0 0 Z " fill="#978243" transform="translate(142,82)"/>
<path d="M0 0 C5.28 0 10.56 0 16 0 C16 7.59 16 15.18 16 23 C14.68 23.33 13.36 23.66 12 24 C11 23 11 23 10.88647461 21.14233398 C10.89171143 20.35157471 10.89694824 19.56081543 10.90234375 18.74609375 C10.90556641 17.89208984 10.90878906 17.03808594 10.91210938 16.15820312 C10.92048828 15.26037109 10.92886719 14.36253906 10.9375 13.4375 C10.94201172 12.53580078 10.94652344 11.63410156 10.95117188 10.70507812 C10.96299775 8.46998686 10.9794778 6.23502563 11 4 C9.68 4 8.36 4 7 4 C7 9.94 7 15.88 7 22 C6.01 22 5.02 22 4 22 C4 15.73 4 9.46 4 3 C2.68 3 1.36 3 0 3 C0 2.01 0 1.02 0 0 Z " fill="#E8F1EE" transform="translate(217,124)"/>
<path d="M0 0 C0.88429687 -0.03738281 1.76859375 -0.07476562 2.6796875 -0.11328125 C5.125 0.3125 5.125 0.3125 6.8984375 2.13671875 C9.91161645 7.48175275 9.09611084 13.23154578 8.37890625 19.078125 C8.06854516 21.43451009 8.06854516 21.43451009 8.125 24.3125 C5.11468256 25.24673645 4.25849732 25.35699911 1.125 24.3125 C0.135 24.6425 -0.855 24.9725 -1.875 25.3125 C-2.865 24.9825 -3.855 24.6525 -4.875 24.3125 C-5.09662329 22.68925914 -5.30189803 21.063779 -5.5 19.4375 C-5.61601562 18.53257812 -5.73203125 17.62765625 -5.8515625 16.6953125 C-5.85929688 15.90898437 -5.86703125 15.12265625 -5.875 14.3125 C-5.215 13.6525 -4.555 12.9925 -3.875 12.3125 C-3.875 15.9425 -3.875 19.5725 -3.875 23.3125 C-2.555 23.3125 -1.235 23.3125 0.125 23.3125 C0.11339844 22.60222656 0.10179687 21.89195312 0.08984375 21.16015625 C0.07630859 19.78150391 0.07630859 19.78150391 0.0625 18.375 C0.05089844 17.45847656 0.03929687 16.54195312 0.02734375 15.59765625 C0.125 13.3125 0.125 13.3125 1.125 12.3125 C0.465 12.3125 -0.195 12.3125 -0.875 12.3125 C-1.5625 10.625 -1.5625 10.625 -1.875 8.3125 C-0.4375 5.6875 -0.4375 5.6875 1.125 3.3125 C1.125 2.6525 1.125 1.9925 1.125 1.3125 C-0.525 1.3125 -2.175 1.3125 -3.875 1.3125 C-4.205 2.3025 -4.535 3.2925 -4.875 4.3125 C-5.205 3.3225 -5.535 2.3325 -5.875 1.3125 C-4.21607528 -0.34642472 -2.27452582 0.06263187 0 0 Z M1.125 5.3125 C2.125 9.3125 2.125 9.3125 2.125 9.3125 Z M6.125 12.3125 C7.125 14.3125 7.125 14.3125 7.125 14.3125 Z " fill="#A8B9B3" transform="translate(161.875,122.6875)"/>
<path d="M0 0 C2.375 0.8125 2.375 0.8125 4.375 3.8125 C4.60205078 5.71362305 4.60205078 5.71362305 4.5703125 7.82421875 C4.56064453 8.96020508 4.56064453 8.96020508 4.55078125 10.11914062 C4.53402344 10.90482422 4.51726562 11.69050781 4.5 12.5 C4.49097656 13.29728516 4.48195312 14.09457031 4.47265625 14.91601562 C4.44911585 16.881639 4.41324547 18.84710775 4.375 20.8125 C2.725 21.1425 1.075 21.4725 -0.625 21.8125 C-0.625 17.1925 -0.625 12.5725 -0.625 7.8125 C-1.615 7.8125 -2.605 7.8125 -3.625 7.8125 C-3.65201408 9.91659639 -3.67140223 12.02079178 -3.6875 14.125 C-3.69910156 15.29675781 -3.71070313 16.46851563 -3.72265625 17.67578125 C-3.77399898 20.84309195 -3.77399898 20.84309195 -2.625 23.8125 C-3.945 23.4825 -5.265 23.1525 -6.625 22.8125 C-6.625 15.8825 -6.625 8.9525 -6.625 1.8125 C-2.625 -0.1875 -2.625 -0.1875 0 0 Z " fill="#EBF4F1" transform="translate(176.625,122.1875)"/>
<path d="M0 0 C1.65 0 3.3 0 5 0 C5.33 1.65 5.66 3.3 6 5 C5.67 4.01 5.34 3.02 5 2 C4.01 2 3.02 2 2 2 C2.33 2.99 2.66 3.98 3 5 C2.67 5.99 2.34 6.98 2 8 C2.66 8 3.32 8 4 8 C4.33 9.98 4.66 11.96 5 14 C7.97 14.495 7.97 14.495 11 15 C11 17.97 11 20.94 11 24 C2.25 25.125 2.25 25.125 0 24 C-1.17416131 15.9952829 -1.26132525 7.98839323 0 0 Z " fill="#CDE1D7" transform="translate(57,123)"/>
<path d="M0 0 C0 0.99 0 1.98 0 3 C0.66 3 1.32 3 2 3 C2.33 3.99 2.66 4.98 3 6 C2.14792969 5.9071875 1.29585937 5.814375 0.41796875 5.71875 C-3.90274941 6.07428338 -6.36495107 7.93590083 -9.6875 10.5 C-15.6402027 15 -15.6402027 15 -19 15 C-19.02712066 13.56260487 -19.04645067 12.12506137 -19.0625 10.6875 C-19.07410156 9.88699219 -19.08570313 9.08648437 -19.09765625 8.26171875 C-19 6 -19 6 -18 3 C-15.08517222 2.19032562 -13.53886783 1.78154007 -10.6875 2.9375 C-10.130625 3.288125 -9.57375 3.63875 -9 4 C-8.2575 3.34 -7.515 2.68 -6.75 2 C-4 0 -4 0 0 0 Z " fill="#B1C6BF" transform="translate(159,66)"/>
<path d="M0 0 C1.21816406 0.03480469 1.21816406 0.03480469 2.4609375 0.0703125 C3.68683594 0.09738281 3.68683594 0.09738281 4.9375 0.125 C5.87722656 0.15980469 5.87722656 0.15980469 6.8359375 0.1953125 C7.4959375 1.5153125 8.1559375 2.8353125 8.8359375 4.1953125 C7.8459375 4.5253125 6.8559375 4.8553125 5.8359375 5.1953125 C5.5059375 9.8153125 5.1759375 14.4353125 4.8359375 19.1953125 C2.5259375 18.8653125 0.2159375 18.5353125 -2.1640625 18.1953125 C-3.25085056 14.93494831 -3.55715636 12.05480598 -3.8515625 8.6328125 C-3.95855469 7.47652344 -4.06554687 6.32023438 -4.17578125 5.12890625 C-4.1617297 1.61133589 -3.64785395 0.3292287 0 0 Z " fill="#BBCFC8" transform="translate(184.1640625,122.8046875)"/>
<path d="M0 0 C1.98 0 3.96 0 6 0 C5.67 0.99 5.34 1.98 5 3 C4.01 3 3.02 3 2 3 C2.33 7.62 2.66 12.24 3 17 C3.33 15.68 3.66 14.36 4 13 C5.65 13 7.3 13 9 13 C9.48148148 19.25925926 9.48148148 19.25925926 7.375 22.5 C4.20884078 24.49967951 2.56244898 23.7417702 -1 23 C-1.02894547 19.54168414 -1.04678 16.08339928 -1.0625 12.625 C-1.07087891 11.64015625 -1.07925781 10.6553125 -1.08789062 9.640625 C-1.09111328 8.69960937 -1.09433594 7.75859375 -1.09765625 6.7890625 C-1.10289307 5.91975098 -1.10812988 5.05043945 -1.11352539 4.15478516 C-1 2 -1 2 0 0 Z " fill="#BFD2CB" transform="translate(208,124)"/>
<path d="M0 0 C2.00720923 0.28674418 4.0085944 0.61866701 6 1 C6.79967527 3.81990753 7.12822838 6.32986872 7.1328125 9.2578125 C7.13474609 10.44310547 7.13474609 10.44310547 7.13671875 11.65234375 C7.13285156 12.46832031 7.12898438 13.28429687 7.125 14.125 C7.13080078 15.36056641 7.13080078 15.36056641 7.13671875 16.62109375 C7.12669335 22.7466133 7.12669335 22.7466133 6 25 C1.07947789 26.23820578 -3.75919633 26.04557847 -8.73828125 25.2578125 C-13.46550901 24.71895752 -18.24910388 24.92873656 -23 25 C-23 24.67 -23 24.34 -23 24 C-19.37 24 -15.74 24 -12 24 C-10.79729036 21.59458071 -10.79683337 19.89633409 -10.68359375 17.2109375 C-10.64169922 16.26992187 -10.59980469 15.32890625 -10.55664062 14.359375 C-10.51732422 13.37453125 -10.47800781 12.3896875 -10.4375 11.375 C-10.39431641 10.38242188 -10.35113281 9.38984375 -10.30664062 8.3671875 C-10.20038931 5.91160162 -10.09835036 3.45591297 -10 1 C-9.67 1 -9.34 1 -9 1 C-9 8.59 -9 16.18 -9 24 C-8.34 24 -7.68 24 -7 24 C-6.34 22.35 -5.68 20.7 -5 19 C-4.38125 19.20625 -3.7625 19.4125 -3.125 19.625 C-2.42375 19.74875 -1.7225 19.8725 -1 20 C-0.34 19.34 0.32 18.68 1 18 C1 19.65 1 21.3 1 23 C2.32 23 3.64 23 5 23 C5 16.07 5 9.14 5 2 C0.09704851 4.69968287 0.09704851 4.69968287 -2 9 C-1.125 1.125 -1.125 1.125 0 0 Z " fill="#B1C3BE" transform="translate(94,122)"/>
<path d="M0 0 C0.66 0 1.32 0 2 0 C2 0.66 2 1.32 2 2 C2.66 2 3.32 2 4 2 C5.12862175 7.36095333 5.09688221 12.55306686 5 18 C4.34 18 3.68 18 3 18 C3 17.01 3 16.02 3 15 C2.030625 14.938125 1.06125 14.87625 0.0625 14.8125 C-4.78621681 14.12832524 -9.08868338 11.90411062 -13 9 C-13.33 8.01 -13.66 7.02 -14 6 C-13.67 5.67 -13.34 5.34 -13 5 C-13.33 4.34 -13.66 3.68 -14 3 C-9.93774452 3.57823096 -7.15237654 4.89117737 -3.6875 7.0625 C-2.80449219 7.61035156 -1.92148438 8.15820312 -1.01171875 8.72265625 C-0.34785156 9.14417969 0.31601563 9.56570312 1 10 C0.67 6.7 0.34 3.4 0 0 Z " fill="#AE8B45" transform="translate(190,58)"/>
<path d="M0 0 C1.19496094 -0.00386719 1.19496094 -0.00386719 2.4140625 -0.0078125 C4.375 0.125 4.375 0.125 5.375 1.125 C5.84508959 8.41138859 5.84508959 8.41138859 4.18359375 10.93359375 C2.375 12.125 2.375 12.125 -0.10546875 11.98046875 C-0.99878906 11.76003906 -1.89210938 11.53960937 -2.8125 11.3125 C-3.71355469 11.09980469 -4.61460938 10.88710937 -5.54296875 10.66796875 C-6.23003906 10.48878906 -6.91710937 10.30960938 -7.625 10.125 C-7.625 7.155 -7.625 4.185 -7.625 1.125 C-4.78285932 0.17761977 -2.94891609 -0.00960559 0 0 Z " fill="#887A44" transform="translate(120.625,152.875)"/>
<path d="M0 0 C1.32 0 2.64 0 4 0 C4.06058594 0.98742187 4.12117188 1.97484375 4.18359375 2.9921875 C4.26738281 4.27351562 4.35117188 5.55484375 4.4375 6.875 C4.51871094 8.15117187 4.59992188 9.42734375 4.68359375 10.7421875 C4.79206027 13.88300152 4.79206027 13.88300152 6 16 C4.6875 18.625 4.6875 18.625 3 21 C2.34 21 1.68 21 1 21 C1 18.69 1 16.38 1 14 C0.01 14.33 -0.98 14.66 -2 15 C-4.1875 14.5625 -4.1875 14.5625 -6 14 C-6 11.69 -6 9.38 -6 7 C-6.66 7 -7.32 7 -8 7 C-8 5.02 -8 3.04 -8 1 C-7.01 1 -6.02 1 -5 1 C-4.34 4.63 -3.68 8.26 -3 12 C-2.34 10.68 -1.68 9.36 -1 8 C-0.01 9.485 -0.01 9.485 1 11 C0.67 7.37 0.34 3.74 0 0 Z " fill="#EBF1EF" transform="translate(67,124)"/>
<path d="M0 0 C0.94875 0.04125 1.8975 0.0825 2.875 0.125 C2.545 1.115 2.215 2.105 1.875 3.125 C0.555 3.125 -0.765 3.125 -2.125 3.125 C-2.125 5.105 -2.125 7.085 -2.125 9.125 C-0.805 9.785 0.515 10.445 1.875 11.125 C-0.58328079 11.29247412 -3.04161865 11.4590144 -5.5 11.625 C-6.19867188 11.67269531 -6.89734375 11.72039062 -7.6171875 11.76953125 C-12.8984375 12.125 -12.8984375 12.125 -15.125 12.125 C-15.125 10.475 -15.125 8.825 -15.125 7.125 C-14.135 6.795 -13.145 6.465 -12.125 6.125 C-11.795 4.475 -11.465 2.825 -11.125 1.125 C-10.17625 1.33125 -9.2275 1.5375 -8.25 1.75 C-7.21875 1.87375 -6.1875 1.9975 -5.125 2.125 C-3.125 0.125 -3.125 0.125 0 0 Z M-7.125 4.125 C-6.125 6.125 -6.125 6.125 -6.125 6.125 Z " fill="#7D7F50" transform="translate(230.125,152.875)"/>
<path d="M0 0 C1.65 0 3.3 0 5 0 C7.28571429 8.42857143 7.28571429 8.42857143 7 13 C6.01 12.67 5.02 12.34 4 12 C4.226875 12.515625 4.45375 13.03125 4.6875 13.5625 C5.16513722 17.28807032 3.61290239 19.64516304 2 23 C1.34 23 0.68 23 0 23 C0 15.41 0 7.82 0 0 Z " fill="#E7EEEC" transform="translate(85,123)"/>
<path d="M0 0 C1.65 0.33 3.3 0.66 5 1 C5 2.32 5 3.64 5 5 C5.66 3.35 6.32 1.7 7 0 C8.32 0.33 9.64 0.66 11 1 C10.01 1 9.02 1 8 1 C8 3.97 8 6.94 8 10 C9.65 10 11.3 10 13 10 C13 10.66 13 11.32 13 12 C2.44191344 12.3690205 2.44191344 12.3690205 -2 10 C-1.54177532 6.53058454 -1.10868317 3.32604951 0 0 Z " fill="#66724B" transform="translate(105,153)"/>
<path d="M0 0 C0.33 0 0.66 0 1 0 C1.33 3.63 1.66 7.26 2 11 C2.33 7.37 2.66 3.74 3 0 C3.33 0 3.66 0 4 0 C4 4.29 4 8.58 4 13 C5.32 13 6.64 13 8 13 C8.33 12.34 8.66 11.68 9 11 C9.33 11.99 9.66 12.98 10 14 C13.3 13.67 16.6 13.34 20 13 C19.34 14.32 18.68 15.64 18 17 C14 17 10 17 6 17 C5.01 17.20625 4.02 17.4125 3 17.625 C2.01 17.74875 1.02 17.8725 0 18 C-0.66 17.34 -1.32 16.68 -2 16 C-1.01 16 -0.02 16 1 16 C0.49339844 14.94232422 0.49339844 14.94232422 -0.0234375 13.86328125 C-1.12624299 10.62985554 -1.03101482 8.55742298 -0.625 5.1875 C-0.51414063 4.21167969 -0.40328125 3.23585937 -0.2890625 2.23046875 C-0.19367188 1.49441406 -0.09828125 0.75835937 0 0 Z " fill="#AEC2BC" transform="translate(173,130)"/>
<path d="M0 0 C2.67927341 4.01891012 2.15601248 6.24161923 2 11 C2.5775 10.505 3.155 10.01 3.75 9.5 C6 8 6 8 10 8 C10 11.96 10 15.92 10 20 C8.68 20 7.36 20 6 20 C5.26919734 18.02253397 4.60578253 16.01927511 4 14 C4.33 13.34 4.66 12.68 5 12 C4.01 12.66 3.02 13.32 2 14 C1.7497843 17.08365871 1.7497843 17.08365871 2 20 C1.34 20.33 0.68 20.66 0 21 C-0.88826175 13.81191259 -1.01202288 7.17757765 0 0 Z " fill="#ECF3F1" transform="translate(247,124)"/>
<path d="M0 0 C3.3 0 6.6 0 10 0 C11.29926874 4.7639854 11.24160134 9.51679731 9 14 C8.01 14 7.02 14 6 14 C6 14.66 6 15.32 6 16 C5.34 16 4.68 16 4 16 C3.90234375 9.84765625 3.90234375 9.84765625 4 8 C4.33 7.67 4.66 7.34 5 7 C4.01 5.68 3.02 4.36 2 3 C1.34 3.99 0.68 4.98 0 6 C0 4.02 0 2.04 0 0 Z " fill="#E6F3EF" transform="translate(112,124)"/>
<path d="M0 0 C0 0.99 0 1.98 0 3 C0.33 3.66 0.66 4.32 1 5 C0.33333333 6.33333333 -0.33333333 7.66666667 -1 9 C-1.45064632 11.58532701 -1.45064632 11.58532701 -1.625 14.25 C-1.69976562 15.14203125 -1.77453125 16.0340625 -1.8515625 16.953125 C-1.90054688 17.62859375 -1.94953125 18.3040625 -2 19 C-2.33 19 -2.66 19 -3 19 C-3.66 15.7 -4.32 12.4 -5 9 C-6.35091528 11.70183055 -6.33858058 14.11808206 -6.5625 17.125 C-6.64628906 18.22070312 -6.73007813 19.31640625 -6.81640625 20.4453125 C-6.87699219 21.28835937 -6.93757812 22.13140625 -7 23 C-7.33 23 -7.66 23 -8 23 C-8.14546783 19.75047252 -8.2341168 16.50178287 -8.3125 13.25 C-8.35439453 12.32960937 -8.39628906 11.40921875 -8.43945312 10.4609375 C-8.56279702 3.65235434 -8.56279702 3.65235434 -5.66796875 0.296875 C-3 -1 -3 -1 0 0 Z " fill="#A3B5B0" transform="translate(241,123)"/>
<path d="M0 0 C0.66 3.96 1.32 7.92 2 12 C0.68 11.67 -0.64 11.34 -2 11 C-3.32 11.33 -4.64 11.66 -6 12 C-6 8.7 -6 5.4 -6 2 C-6.66 2 -7.32 2 -8 2 C-8 4.31 -8 6.62 -8 9 C-8.33 9 -8.66 9 -9 9 C-9 6.36 -9 3.72 -9 1 C-6 0 -6 0 0 0 Z " fill="#858152" transform="translate(186,153)"/>
<path d="M0 0 C0.66 0 1.32 0 2 0 C2.96604701 3.24315782 3.13419024 6.18508666 3.125 9.5625 C3.12757812 10.51253906 3.13015625 11.46257812 3.1328125 12.44140625 C3 15 3 15 2 18 C-0.8125 18.6875 -0.8125 18.6875 -4 19 C-5.7109375 17.83984375 -5.7109375 17.83984375 -7 16 C-7.14453125 13.5546875 -7.14453125 13.5546875 -6.8125 10.875 C-6.71582031 9.98554688 -6.61914062 9.09609375 -6.51953125 8.1796875 C-6.34808594 7.46039063 -6.17664063 6.74109375 -6 6 C-5.34 5.67 -4.68 5.34 -4 5 C-3.87882812 5.63808594 -3.75765625 6.27617187 -3.6328125 6.93359375 C-3.46523437 7.75988281 -3.29765625 8.58617187 -3.125 9.4375 C-2.96257812 10.26121094 -2.80015625 11.08492187 -2.6328125 11.93359375 C-2.31957031 12.95646484 -2.31957031 12.95646484 -2 14 C-1.34 14.33 -0.68 14.66 0 15 C0 10.05 0 5.1 0 0 Z " fill="#E8F1EE" transform="translate(107,127)"/>
<path d="M0 0 C2.475 0.495 2.475 0.495 5 1 C5 6.28 5 11.56 5 17 C3.02 17.99 3.02 17.99 1 19 C-0.65497356 15.69005287 -0.10084335 12.00877 -0.0625 8.375 C-0.05798828 7.57320312 -0.05347656 6.77140625 -0.04882812 5.9453125 C-0.03703168 3.96350994 -0.01909605 1.98174567 0 0 Z " fill="#E9F3F0" transform="translate(194,124)"/>
<path d="M0 0 C1.32 0 2.64 0 4 0 C4 7.59 4 15.18 4 23 C2.68 22.34 1.36 21.68 0 21 C0 14.07 0 7.14 0 0 Z " fill="#E1F1EC" transform="translate(124,123)"/>
<path d="M0 0 C2 0.3125 2 0.3125 4 1 C5.4783226 3.95664519 5.06032783 6.74229737 5 10 C4.34 10 3.68 10 3 10 C3 9.34 3 8.68 3 8 C2.21625 8.20625 1.4325 8.4125 0.625 8.625 C-0.24125 8.74875 -1.1075 8.8725 -2 9 C-2.66 8.34 -3.32 7.68 -4 7 C-4.66 8.32 -5.32 9.64 -6 11 C-6.33 7.7 -6.66 4.4 -7 1 C-5.5459375 1.0309375 -5.5459375 1.0309375 -4.0625 1.0625 C-1.12534105 1.35618499 -1.12534105 1.35618499 0 0 Z " fill="#767140" transform="translate(134,153)"/>
<path d="M0 0 C1.32 0 2.64 0 4 0 C4 5.28 4 10.56 4 16 C0.7 16.66 -2.6 17.32 -6 18 C-6.33 16.68 -6.66 15.36 -7 14 C-4.69 14.33 -2.38 14.66 0 15 C0 10.05 0 5.1 0 0 Z " fill="#EDF5F2" transform="translate(189,127)"/>
<path d="M0 0 C0.66 0.33 1.32 0.66 2 1 C1.67 1.66 1.34 2.32 1 3 C2.32 3 3.64 3 5 3 C5 2.01 5 1.02 5 0 C6.65 0 8.3 0 10 0 C6.71533863 3.67882073 3.33639092 5.75150101 -1 8 C-1.66 8 -2.32 8 -3 8 C-3 8.66 -3 9.32 -3 10 C-0.69 10.33 1.62 10.66 4 11 C4 11.33 4 11.66 4 12 C1.36 12 -1.28 12 -4 12 C-2.68 12.99 -1.36 13.98 0 15 C-4.21912747 14.5205537 -6.79663178 13.83374881 -10 11 C-8.68 11 -7.36 11 -6 11 C-5.34 9.35 -4.68 7.7 -4 6 C-3.01 6 -2.02 6 -1 6 C-1 5.34 -1 4.68 -1 4 C-2.65 4.33 -4.3 4.66 -6 5 C-4.06745228 2.9754262 -2.36841312 1.57894208 0 0 Z " fill="#7B7340" transform="translate(148,96)"/>
<path d="M0 0 C0.33 0 0.66 0 1 0 C1.33 10.56 1.66 21.12 2 32 C3.32 31.01 4.64 30.02 6 29 C6.99 29.99 7.98 30.98 9 32 C9 30.68 9 29.36 9 28 C9.99 28 10.98 28 12 28 C12.33 26.68 12.66 25.36 13 24 C13.33 24.99 13.66 25.98 14 27 C12.671875 29.2265625 12.671875 29.2265625 10.75 31.625 C10.12609375 32.42164063 9.5021875 33.21828125 8.859375 34.0390625 C7 36 7 36 4 37 C4 36.01 4 35.02 4 34 C2.68 34 1.36 34 0 34 C0 22.78 0 11.56 0 0 Z " fill="#6D6C3E" transform="translate(177,67)"/>
<path d="M0 0 C2.29415645 0.9037586 4.57909901 1.80671071 6.8203125 2.8359375 C8.52280834 3.61238958 10.26038483 4.31071852 12 5 C12.66 4.67 13.32 4.34 14 4 C13.33333333 6.66666667 12.66666667 9.33333333 12 12 C7.22390502 10.35821735 3.20617096 7.73453298 -1 5 C-1.33 6.32 -1.66 7.64 -2 9 C-2 7.35 -2 5.7 -2 4 C-1.01 4 -0.02 4 1 4 C0.67 2.68 0.34 1.36 0 0 Z " fill="#7E7238" transform="translate(125,73)"/>
<path d="M0 0 C0 6.27 0 12.54 0 19 C0.99 19 1.98 19 3 19 C3 13.06 3 7.12 3 1 C3.33 1 3.66 1 4 1 C4 7.27 4 13.54 4 20 C2.35 20 0.7 20 -1 20 C-1 13.73 -1 7.46 -1 1 C-1.99 1 -2.98 1 -4 1 C-4.33 2.65 -4.66 4.3 -5 6 C-6.32 5.67 -7.64 5.34 -9 5 C-9 3.68 -9 2.36 -9 1 C-9.66 0.67 -10.32 0.34 -11 0 C-8 -1 -8 -1 0 0 Z " fill="#9EBAB1" transform="translate(221,127)"/>
<path d="M0 0 C0.804375 0.185625 1.60875 0.37125 2.4375 0.5625 C3.0975 0.2325 3.7575 -0.0975 4.4375 -0.4375 C4.4375 2.5325 4.4375 5.5025 4.4375 8.5625 C2.7875 8.8925 1.1375 9.2225 -0.5625 9.5625 C-0.8925 8.2425 -1.2225 6.9225 -1.5625 5.5625 C-1.8925 7.2125 -2.2225 8.8625 -2.5625 10.5625 C-2.8925 10.5625 -3.2225 10.5625 -3.5625 10.5625 C-3.5625 8.9125 -3.5625 7.2625 -3.5625 5.5625 C-3.8925 6.2225 -4.2225 6.8825 -4.5625 7.5625 C-5.5525 7.2325 -6.5425 6.9025 -7.5625 6.5625 C-7.8925 4.5825 -8.2225 2.6025 -8.5625 0.5625 C-7.5725 0.8925 -6.5825 1.2225 -5.5625 1.5625 C-2.5625 -0.4375 -2.5625 -0.4375 0 0 Z " fill="#626B44" transform="translate(194.5625,153.4375)"/>
<path d="M0 0 C0.66 0.33 1.32 0.66 2 1 C2 6.61 2 12.22 2 18 C0.35 18.33 -1.3 18.66 -3 19 C-3 13 -3 7 -3 1 C-2.01 0.67 -1.02 0.34 0 0 Z " fill="#EDF3F1" transform="translate(179,125)"/>
<path d="M0 0 C0.33 0 0.66 0 1 0 C1.33 4.62 1.66 9.24 2 14 C2.66 14 3.32 14 4 14 C5.32 14 6.64 14 8 14 C8.33 12.68 8.66 11.36 9 10 C10.60355101 13.50776784 11.22036864 16.14354879 11 20 C8.3125 20.8125 8.3125 20.8125 5 21 C2.31121078 19.03030557 0.30691633 17.46933617 -0.3996582 14.08666992 C-0.49165012 11.9328426 -0.43750089 9.83943838 -0.3125 7.6875 C-0.28994141 6.94693359 -0.26738281 6.20636719 -0.24414062 5.44335938 C-0.1855815 3.62802643 -0.09590886 1.81374319 0 0 Z " fill="#B1C0BA" transform="translate(193,127)"/>
<path d="M0 0 C0.33 0 0.66 0 1 0 C1 6.93 1 13.86 1 21 C1.99 21.33 2.98 21.66 4 22 C4.33 14.74 4.66 7.48 5 0 C5.33 0 5.66 0 6 0 C6.33 7.92 6.66 15.84 7 24 C2 25 2 25 0 24 C-1.15618598 17.37919915 -3.10246264 6.20492528 0 0 Z " fill="#69827A" transform="translate(123,123)"/>
<path d="M0 0 C1.98 0 3.96 0 6 0 C7.20029908 2.40059817 7.11459743 3.89360649 7.09765625 6.5703125 C7.09282227 7.91416016 7.09282227 7.91416016 7.08789062 9.28515625 C7.07951172 10.22230469 7.07113281 11.15945312 7.0625 12.125 C7.05798828 13.06988281 7.05347656 14.01476562 7.04882812 14.98828125 C7.03702357 17.32558387 7.02055759 19.66276061 7 22 C6.01 22 5.02 22 4 22 C4 15.73 4 9.46 4 3 C2.68 3 1.36 3 0 3 C0 2.01 0 1.02 0 0 Z " fill="#E7F4F0" transform="translate(217,124)"/>
<path d="M0 0 C5.31866251 3.8343846 8.33447993 7.99668267 11 14 C11 14.66 11 15.32 11 16 C10.34 16 9.68 16 9 16 C9 15.34 9 14.68 9 14 C8.34 14 7.68 14 7 14 C7.33 14.70125 7.66 15.4025 8 16.125 C9.09044562 19.26003116 9.15322643 21.70563182 9 25 C8.67 25 8.34 25 8 25 C7.85304687 24.38253906 7.70609375 23.76507813 7.5546875 23.12890625 C5.79789173 16.49548773 3.09400985 11.48517824 -1 6 C0.98 6.66 2.96 7.32 5 8 C4.175 7.05125 3.35 6.1025 2.5 5.125 C0 2.25 0 2.25 0 0 Z " fill="#7D7341" transform="translate(183,44)"/>
<path d="M0 0 C3.69230769 0.69230769 3.69230769 0.69230769 5 2 C5.09955104 3.93538935 5.12968668 5.87455769 5.125 7.8125 C5.12757813 8.87082031 5.13015625 9.92914063 5.1328125 11.01953125 C5.02063661 13.53689017 4.7309121 15.60423255 4 18 C3.34 18 2.68 18 2 18 C1.67 18.66 1.34 19.32 1 20 C0.30557623 15.67914098 -0.12876893 12.01998784 0.5625 7.6875 C1.41410015 3.91821084 1.41410015 3.91821084 -1 1 C-0.67 0.67 -0.34 0.34 0 0 Z " fill="#DBE9E5" transform="translate(240,123)"/>
<path d="M0 0 C4.30764815 1.56641751 8.06171464 3.68336156 12 6 C11.01 6.495 11.01 6.495 10 7 C10 9.64 10 12.28 10 15 C9.67 15 9.34 15 9 15 C9 13.35 9 11.7 9 10 C8.34 9.7525 7.68 9.505 7 9.25 C3.23639093 7.68182955 -0.3711424 5.85494954 -4 4 C-2.68 3.34 -1.36 2.68 0 2 C0 1.34 0 0.68 0 0 Z " fill="#917F43" transform="translate(164,54)"/>
<path d="M0 0 C8.25 0.33 16.5 0.66 25 1 C25 1.66 25 2.32 25 3 C21.08560579 4.26073995 17.13235073 4.22032014 13.0625 4.25 C12.35931641 4.270625 11.65613281 4.29125 10.93164062 4.3125 C6.43233305 4.34623426 3.57913756 3.7736565 0 1 C0 0.67 0 0.34 0 0 Z " fill="#9E8544" transform="translate(143,107)"/>
<path d="M0 0 C0.66 0.33 1.32 0.66 2 1 C3.26323683 5.00626537 2.82491045 8.2313617 2.0625 12.3125 C1.77052734 13.91544922 1.77052734 13.91544922 1.47265625 15.55078125 C1.31667969 16.35902344 1.16070312 17.16726562 1 18 C1.66 18 2.32 18 3 18 C3.99 19.98 4.98 21.96 6 24 C3.36 23.34 0.72 22.68 -2 22 C-1.835 20.906875 -1.67 19.81375 -1.5 18.6875 C-0.92918329 14.24781449 -0.9616409 9.88728757 -1.0625 5.41796875 C-1 3 -1 3 0 0 Z " fill="#B18B47" transform="translate(139,63)"/>
<path d="M0 0 C2.31 0 4.62 0 7 0 C6.67 2.64 6.34 5.28 6 8 C9.3 8.33 12.6 8.66 16 9 C15.67 9.66 15.34 10.32 15 11 C10.23355631 11.19065775 6.33413384 11.11667001 2 9 C0.09199389 5.70435308 0 3.87611408 0 0 Z " fill="#7B7242" transform="translate(153,154)"/>
<path d="M0 0 C2.64 0 5.28 0 8 0 C8 0.33 8 0.66 8 1 C5.69 1 3.38 1 1 1 C1.33 7.27 1.66 13.54 2 20 C2 18.68 2 17.36 2 16 C2.66 15.01 3.32 14.02 4 13 C4.99 13.99 5.98 14.98 7 16 C6.34 16 5.68 16 5 16 C5 18.64 5 21.28 5 24 C4.01 24.33 3.02 24.66 2 25 C1.34 24.67 0.68 24.34 0 24 C0 16.08 0 8.16 0 0 Z " fill="#C4D9D3" transform="translate(147,123)"/>
<path d="M0 0 C2.475 0.99 2.475 0.99 5 2 C5.125 7.75 5.125 7.75 4 10 C4.99 10.33 5.98 10.66 7 11 C2.25 12 2.25 12 0 12 C0 13.98 0 15.96 0 18 C-0.66 17.67 -1.32 17.34 -2 17 C-2.25 9.375 -2.25 9.375 0 6 C-0.33 5.34 -0.66 4.68 -1 4 C-0.34 4 0.32 4 1 4 C0.67 2.68 0.34 1.36 0 0 Z M2 3 C3 6 3 6 3 6 Z " fill="#E7F1EE" transform="translate(150,126)"/>
<path d="M0 0 C4.95 2.64 9.9 5.28 15 8 C11 9 11 9 8 8 C8.33 8.99 8.66 9.98 9 11 C4.02790438 9.23570801 -0.43438061 6.6060834 -5 4 C-2.92446352 3.4465236 -1.15634036 3 1 3 C0.67 2.01 0.34 1.02 0 0 Z " fill="#796C3B" transform="translate(142,82)"/>
<path d="M0 0 C1.32 0 2.64 0 4 0 C4 0.99 4 1.98 4 3 C5.32 3 6.64 3 8 3 C8.33 2.01 8.66 1.02 9 0 C9.36174071 6.39075249 9.36174071 6.39075249 7.8125 9 C6 10 6 10 3.375 9.8125 C1 9 1 9 0 7 C-0.04022391 4.6670134 -0.04320247 2.33293334 0 0 Z " fill="#767644" transform="translate(117,155)"/>
<path d="M0 0 C1.32 0.33 2.64 0.66 4 1 C3.01 1 2.02 1 1 1 C1.99 1.33 2.98 1.66 4 2 C4 4.97 4 7.94 4 11 C1.29120665 12.35439668 -1.00933268 12.06501451 -4 12 C-4 9.33333333 -4 6.66666667 -4 4 C-3.34 3.67 -2.68 3.34 -2 3 C-1.67 3.99 -1.34 4.98 -1 6 C-0.67 4.02 -0.34 2.04 0 0 Z " fill="#62683A" transform="translate(176,153)"/>
<path d="M0 0 C5.15464734 0.48324819 8.81550319 3.18610761 13 6 C11.36587557 7.70840281 10.13093906 8.93453047 8 10 C3 7.54385965 3 7.54385965 1 6 C0.67 5.01 0.34 4.02 0 3 C0.33 2.67 0.66 2.34 1 2 C0.67 1.34 0.34 0.68 0 0 Z " fill="#9B813E" transform="translate(176,61)"/>
<path d="M0 0 C1.134375 0.020625 2.26875 0.04125 3.4375 0.0625 C3.4375 3.0325 3.4375 6.0025 3.4375 9.0625 C3.1075 9.0625 2.7775 9.0625 2.4375 9.0625 C2.4375 6.4225 2.4375 3.7825 2.4375 1.0625 C0.7875 1.0625 -0.8625 1.0625 -2.5625 1.0625 C-2.211875 2.114375 -1.86125 3.16625 -1.5 4.25 C-0.61279473 7.8579681 -0.50987118 9.58882489 -1.5625 13.0625 C-2.2225 12.0725 -2.8825 11.0825 -3.5625 10.0625 C-4.2225 11.3825 -4.8825 12.7025 -5.5625 14.0625 C-6.5625 13.0625 -6.5625 13.0625 -6.625 9.5 C-6.604375 8.365625 -6.58375 7.23125 -6.5625 6.0625 C-5.9025 6.0625 -5.2425 6.0625 -4.5625 6.0625 C-4.5934375 4.8559375 -4.5934375 4.8559375 -4.625 3.625 C-4.52750049 -0.37247981 -4.13731851 0.07258454 0 0 Z " fill="#B9C8C2" transform="translate(69.5625,122.9375)"/>
<path d="M0 0 C1.32 0 2.64 0 4 0 C4.33 5.28 4.66 10.56 5 16 C6.65 16.33 8.3 16.66 10 17 C10 17.99 10 18.98 10 20 C8.25 21.0625 8.25 21.0625 6 22 C4.68 21.67 3.36 21.34 2 21 C2 15.06 2 9.12 2 3 C1.01 3 0.02 3 -1 3 C-0.67 2.01 -0.34 1.02 0 0 Z " fill="#AC853C" transform="translate(171,84)"/>
<path d="M0 0 C0.66 0.99 1.32 1.98 2 3 C1.154375 3.0825 0.30875 3.165 -0.5625 3.25 C-4.71278218 4.15551611 -7.36315577 5.83188132 -11 8 C-11.66 8 -12.32 8 -13 8 C-13 7.34 -13 6.68 -13 6 C-12.01 6 -11.02 6 -10 6 C-10 5.01 -10 4.02 -10 3 C-10.66 2.67 -11.32 2.34 -12 2 C-7.75883767 -1.21300176 -5.11663457 -1.35156385 0 0 Z " fill="#8D7A44" transform="translate(158,54)"/>
<path d="M0 0 C-0.55105909 3.9492568 -1.38935371 7.34920174 -3 11 C-3.66 11 -4.32 11 -5 11 C-8 4.375 -8 4.375 -8 1 C-5.23735711 0.40267181 -2.83967231 0 0 0 Z " fill="#7F7C4B" transform="translate(244,153)"/>
<path d="M0 0 C2.12574678 3.5429113 2.47433223 6.94484863 3 11 C3.33 11.66 3.66 12.32 4 13 C3.67 13.66 3.34 14.32 3 15 C1.35 14.67 -0.3 14.34 -2 14 C-2.05410687 12.22950311 -2.09284119 10.45853151 -2.125 8.6875 C-2.14820313 7.70136719 -2.17140625 6.71523437 -2.1953125 5.69921875 C-2 3 -2 3 0 0 Z " fill="#E4EEEB" transform="translate(236,131)"/>
<path d="M0 0 C0.99 0.33 1.98 0.66 3 1 C2.34 1 1.68 1 1 1 C1 2.98 1 4.96 1 7 C-0.32 7 -1.64 7 -3 7 C-3.33 8.32 -3.66 9.64 -4 11 C-4 10.34 -4 9.68 -4 9 C-5.98 9.33 -7.96 9.66 -10 10 C-10.68707555 7.50935112 -11 5.62113708 -11 3 C-9.35 3 -7.7 3 -6 3 C-6.33 3.66 -6.66 4.32 -7 5 C-7.66 5 -8.32 5 -9 5 C-9 5.66 -9 6.32 -9 7 C-7.68 7 -6.36 7 -5 7 C-5 5.02 -5 3.04 -5 1 C-4.01 1.99 -3.02 2.98 -2 4 C-1.34 2.68 -0.68 1.36 0 0 Z " fill="#5A653C" transform="translate(218,153)"/>
<path d="M0 0 C8.32201383 1.16892018 8.32201383 1.16892018 10.9375 4.375 C11.288125 5.24125 11.63875 6.1075 12 7 C12.391875 7.763125 12.78375 8.52625 13.1875 9.3125 C13.455625 9.869375 13.72375 10.42625 14 11 C10.90694578 10.39096941 8.80360238 9.40131197 6.25 7.5625 C5.32960937 6.91474609 5.32960937 6.91474609 4.390625 6.25390625 C3.70226562 5.63322266 3.70226562 5.63322266 3 5 C3 4.34 3 3.68 3 3 C2.34 3 1.68 3 1 3 C0.67 2.01 0.34 1.02 0 0 Z " fill="#A58641" transform="translate(174,41)"/>
<path d="M0 0 C2.97 0 5.94 0 9 0 C9.25 6.625 9.25 6.625 7 10 C4.375 10.1875 4.375 10.1875 2 10 C2.33 7.36 2.66 4.72 3 2 C2.01 1.34 1.02 0.68 0 0 Z " fill="#867740" transform="translate(140,154)"/>
<path d="M0 0 C2.97 0 5.94 0 9 0 C9 2.62834278 8.80210238 5.08186701 8.5 7.6875 C8.4071875 8.49574219 8.314375 9.30398437 8.21875 10.13671875 C8.1465625 10.75160156 8.074375 11.36648437 8 12 C7.01 11.67 6.02 11.34 5 11 C4.12109375 9.00390625 4.12109375 9.00390625 3.4375 6.5625 C2.41492741 2.90141772 2.41492741 2.90141772 0 0 Z M4 4 C5 6 5 6 5 6 Z " fill="#737B4C" transform="translate(96,153)"/>
<path d="M0 0 C0.66 0.33 1.32 0.66 2 1 C2.639375 0.79375 3.27875 0.5875 3.9375 0.375 C4.618125 0.25125 5.29875 0.1275 6 0 C7.75 1.4375 7.75 1.4375 9 3 C7.35 3 5.7 3 4 3 C4.99 3.33 5.98 3.66 7 4 C7.99 4.66 8.98 5.32 10 6 C8.875 7.5 8.875 7.5 7 9 C3.8125 9.1875 3.8125 9.1875 1 9 C-0.61949011 6.42786866 -1.04408751 5.32330841 -0.625 2.25 C-0.41875 1.5075 -0.2125 0.765 0 0 Z " fill="#686F3F" transform="translate(71,155)"/>
<path d="M0 0 C1.65 0 3.3 0 5 0 C5.33 0.66 5.66 1.32 6 2 C4.68 1.67 3.36 1.34 2 1 C2.33 2.32 2.66 3.64 3 5 C3.66 4.67 4.32 4.34 5 4 C5.28875 4.639375 5.5775 5.27875 5.875 5.9375 C6.82823451 8.15206079 6.82823451 8.15206079 9 9 C9 9.66 9 10.32 9 11 C1.375 12 1.375 12 -2 12 C-1.505 11.2575 -1.505 11.2575 -1 10.5 C0.43636358 6.90909106 0.12851462 3.85543873 0 0 Z " fill="#666838" transform="translate(125,153)"/>
<path d="M0 0 C1.98 0 3.96 0 6 0 C5.67 0.99 5.34 1.98 5 3 C4.01 3.33 3.02 3.66 2 4 C1.95101562 5.07121094 1.90203125 6.14242187 1.8515625 7.24609375 C1.77654706 8.64325639 1.7009987 10.0403905 1.625 11.4375 C1.5940625 12.14455078 1.563125 12.85160156 1.53125 13.58007812 C1.42719371 15.39239188 1.22080108 17.19817988 1 19 C0.34 19.33 -0.32 19.66 -1 20 C-1.02689449 17.04160645 -1.04678741 14.08345573 -1.0625 11.125 C-1.07087891 10.28324219 -1.07925781 9.44148437 -1.08789062 8.57421875 C-1.09111328 7.76855469 -1.09433594 6.96289062 -1.09765625 6.1328125 C-1.10289307 5.38918457 -1.10812988 4.64555664 -1.11352539 3.87939453 C-1 2 -1 2 0 0 Z " fill="#EFF8F4" transform="translate(208,124)"/>
<path d="M0 0 C2.97 0 5.94 0 9 0 C9.66 1.32 10.32 2.64 11 4 C10.01 4.33 9.02 4.66 8 5 C7.67 9.62 7.34 14.24 7 19 C6.01 19 5.02 19 4 19 C4 14.05 4 9.1 4 4 C5.32 3.67 6.64 3.34 8 3 C8 2.34 8 1.68 8 1 C5.36 1 2.72 1 0 1 C0 0.67 0 0.34 0 0 Z " fill="#7D8F8C" transform="translate(182,123)"/>
<path d="M0 0 C0.33 1.32 0.66 2.64 1 4 C0.01 4.33 -0.98 4.66 -2 5 C-2.66 5.66 -3.32 6.32 -4 7 C-7 5.1875 -7 5.1875 -10 3 C-10 2.01 -10 1.02 -10 0 C-6.42355152 -1.2380014 -3.66305234 -0.74926071 0 0 Z " fill="#E0EFEB" transform="translate(173,71)"/>
<path d="M0 0 C0.33 0 0.66 0 1 0 C1.33 2.31 1.66 4.62 2 7 C0.35 7 -1.3 7 -3 7 C-3 8.32 -3 9.64 -3 11 C-3.99 11.33 -4.98 11.66 -6 12 C-7.46726798 8.18510326 -6.43336419 5.70988378 -5 2 C-3.68 2.33 -2.36 2.66 -1 3 C-0.67 2.01 -0.34 1.02 0 0 Z " fill="#E7EFED" transform="translate(136,135)"/>
<path d="M0 0 C1.98 0 3.96 0 6 0 C6 0.66 6 1.32 6 2 C4.35 2 2.7 2 1 2 C1.33 4.97 1.66 7.94 2 11 C-2.455 11.495 -2.455 11.495 -7 12 C-6.67 8.37 -6.34 4.74 -6 1 C-5.67 1 -5.34 1 -5 1 C-5 3.97 -5 6.94 -5 10 C-3.68 9.67 -2.36 9.34 -1 9 C-0.67 6.03 -0.34 3.06 0 0 Z " fill="#7C7F53" transform="translate(199,153)"/>
<path d="M0 0 C0.99 0.33 1.98 0.66 3 1 C2.67 1.99 2.34 2.98 2 4 C2.66 4 3.32 4 4 4 C4 4.99 4 5.98 4 7 C4.99 7.66 5.98 8.32 7 9 C2.375 12 2.375 12 -1 12 C-1.02712066 10.56260487 -1.04645067 9.12506137 -1.0625 7.6875 C-1.07410156 6.88699219 -1.08570313 6.08648437 -1.09765625 5.26171875 C-1 3 -1 3 0 0 Z " fill="#B9BEA8" transform="translate(141,69)"/>
<path d="M0 0 C1.90845703 0.15275391 1.90845703 0.15275391 3.85546875 0.30859375 C4.83128906 0.39238281 5.80710938 0.47617188 6.8125 0.5625 C6.8125 0.8925 6.8125 1.2225 6.8125 1.5625 C4.1725 2.2225 1.5325 2.8825 -1.1875 3.5625 C-1.1875 2.9025 -1.1875 2.2425 -1.1875 1.5625 C-1.97125 1.748125 -2.755 1.93375 -3.5625 2.125 C-6.1875 2.5625 -6.1875 2.5625 -8.1875 1.5625 C-7.8575 2.305 -7.5275 3.0475 -7.1875 3.8125 C-6.1875 6.5625 -6.1875 6.5625 -6.1875 10.5625 C-5.1975 10.8925 -4.2075 11.2225 -3.1875 11.5625 C-4.5075 11.5625 -5.8275 11.5625 -7.1875 11.5625 C-7.88715443 10.29831754 -8.57184763 9.02584598 -9.25 7.75 C-9.63285156 7.04230469 -10.01570312 6.33460938 -10.41015625 5.60546875 C-11.1875 3.5625 -11.1875 3.5625 -10.1875 0.5625 C-6.51762779 -0.66079074 -3.84782178 -0.31771006 0 0 Z " fill="#676C50" transform="translate(161.1875,152.4375)"/>
<path d="M0 0 C0.66 0 1.32 0 2 0 C1.96519531 0.90363281 1.93039063 1.80726563 1.89453125 2.73828125 C1.86746094 3.91777344 1.84039062 5.09726563 1.8125 6.3125 C1.77769531 7.48425781 1.74289063 8.65601563 1.70703125 9.86328125 C2.03076839 13.32942685 2.47271671 13.84418092 5 16 C5 16.99 5 17.98 5 19 C3.0625 19.5625 3.0625 19.5625 1 20 C0 19 0 19 -0.11352539 17.14233398 C-0.10828857 16.35157471 -0.10305176 15.56081543 -0.09765625 14.74609375 C-0.09443359 13.89208984 -0.09121094 13.03808594 -0.08789062 12.15820312 C-0.07951172 11.26037109 -0.07113281 10.36253906 -0.0625 9.4375 C-0.05798828 8.53580078 -0.05347656 7.63410156 -0.04882812 6.70507812 C-0.03700225 4.46998686 -0.0205222 2.23502563 0 0 Z " fill="#C4D9D3" transform="translate(228,128)"/>
<path d="M0 0 C2.00720923 0.28674418 4.0085944 0.61866701 6 1 C6.81434143 3.85160391 7.11881242 6.36626131 7.09765625 9.328125 C7.09443359 10.12734375 7.09121094 10.9265625 7.08789062 11.75 C7.07951172 12.575 7.07113281 13.4 7.0625 14.25 C7.05798828 15.09046875 7.05347656 15.9309375 7.04882812 16.796875 C7.03707961 18.86461401 7.01914522 20.93231624 7 23 C6.34 23 5.68 23 5 23 C5 16.07 5 9.14 5 2 C0.09704851 4.69968287 0.09704851 4.69968287 -2 9 C-1.125 1.125 -1.125 1.125 0 0 Z " fill="#7A9388" transform="translate(94,122)"/>
<path d="M0 0 C0.66 0 1.32 0 2 0 C2 2.97 2 5.94 2 9 C-6.75 10.125 -6.75 10.125 -9 9 C-9 8.01 -9 7.02 -9 6 C-8.34 6 -7.68 6 -7 6 C-6.67 5.34 -6.34 4.68 -6 4 C-6 4.66 -6 5.32 -6 6 C-3.03 6.495 -3.03 6.495 0 7 C0 4.69 0 2.38 0 0 Z " fill="#AABBB6" transform="translate(66,138)"/>
<path d="M0 0 C0.33 0 0.66 0 1 0 C1 3.3 1 6.6 1 10 C0.01 10.33 -0.98 10.66 -2 11 C-4.66666667 8.33333333 -7.33333333 5.66666667 -10 3 C-7.525 3.99 -7.525 3.99 -5 5 C-4.67 4.01 -4.34 3.02 -4 2 C-3.01 2.33 -2.02 2.66 -1 3 C-0.67 2.01 -0.34 1.02 0 0 Z " fill="#ABAB90" transform="translate(174,72)"/>
<path d="M0 0 C0.99 0.33 1.98 0.66 3 1 C2.34 1 1.68 1 1 1 C1 6.28 1 11.56 1 17 C2.32 16.67 3.64 16.34 5 16 C5 16.66 5 17.32 5 18 C3.02 18.33 1.04 18.66 -1 19 C-1.02683987 16.02077407 -1.04676037 13.04178705 -1.0625 10.0625 C-1.07087891 9.21236328 -1.07925781 8.36222656 -1.08789062 7.48632812 C-1.09111328 6.67744141 -1.09433594 5.86855469 -1.09765625 5.03515625 C-1.10289307 4.2862915 -1.10812988 3.53742676 -1.11352539 2.76586914 C-1 1 -1 1 0 0 Z " fill="#7E7640" transform="translate(141,41)"/>
<path d="M0 0 C1.65 0.33 3.3 0.66 5 1 C5.17942163 4.94727588 5.09350689 7.5980513 3 11 C1.35 10.67 -0.3 10.34 -2 10 C-1.54177532 6.53058454 -1.10868317 3.32604951 0 0 Z " fill="#576136" transform="translate(105,153)"/>
<path d="M0 0 C0.86625 0.3403125 0.86625 0.3403125 1.75 0.6875 C1.75 2.0075 1.75 3.3275 1.75 4.6875 C2.74 4.6875 3.73 4.6875 4.75 4.6875 C5.08 5.6775 5.41 6.6675 5.75 7.6875 C1.46642241 8.05466379 -0.75348319 7.14451181 -4.25 4.6875 C-4.91 4.0275 -5.57 3.3675 -6.25 2.6875 C-2.80384615 -0.38942308 -2.80384615 -0.38942308 0 0 Z " fill="#A18747" transform="translate(159.25,49.3125)"/>
<path d="M0 0 C1.32 0.33 2.64 0.66 4 1 C3.67 1.99 3.34 2.98 3 4 C3.66 4 4.32 4 5 4 C5 6.31 5 8.62 5 11 C4.01 11 3.02 11 2 11 C2 11.66 2 12.32 2 13 C1.34 13 0.68 13 0 13 C-0.09765625 6.84765625 -0.09765625 6.84765625 0 5 C0.33 4.67 0.66 4.34 1 4 C0.59070014 1.94603274 0.59070014 1.94603274 0 0 Z " fill="#D0DBD7" transform="translate(116,127)"/>
<path d="M0 0 C0.66 0 1.32 0 2 0 C1.67 3.63 1.34 7.26 1 11 C-0.65 11 -2.3 11 -4 11 C-4 8.36 -4 5.72 -4 3 C-3.67 3 -3.34 3 -3 3 C-2.67 4.32 -2.34 5.64 -2 7 C-2.04125 6.21625 -2.0825 5.4325 -2.125 4.625 C-2 2 -2 2 0 0 Z " fill="#BED0CB" transform="translate(250,136)"/>
<path d="M0 0 C0.33 0 0.66 0 1 0 C1 7.26 1 14.52 1 22 C0.34 20.68 -0.32 19.36 -1 18 C-1.804375 16.453125 -1.804375 16.453125 -2.625 14.875 C-4 12 -4 12 -4 10 C-3.01 9.67 -2.02 9.34 -1 9 C-0.67 6.03 -0.34 3.06 0 0 Z " fill="#E4ECEA" transform="translate(204,124)"/>
<path d="M0 0 C0 0.99 0 1.98 0 3 C-0.99 3.33 -1.98 3.66 -3 4 C-3.99 5.485 -3.99 5.485 -5 7 C-5.99 6.67 -6.98 6.34 -8 6 C-8.33 4.35 -8.66 2.7 -9 1 C-5.64919071 -1.10976881 -3.77897651 -1.0497157 0 0 Z " fill="#DDE7E5" transform="translate(179,123)"/>
<path d="M0 0 C2.3129482 2.3129482 2.49580975 3.47904875 3.125 6.625 C3.29257813 7.44226563 3.46015625 8.25953125 3.6328125 9.1015625 C3.81457031 10.04128906 3.81457031 10.04128906 4 11 C4.66 11 5.32 11 6 11 C6.33 9.68 6.66 8.36 7 7 C8.5625 9.375 8.5625 9.375 10 12 C9.67 12.66 9.34 13.32 9 14 C8.01 13.67 7.02 13.34 6 13 C5.67 13.66 5.34 14.32 5 15 C3.96709159 13.06891037 2.94901328 11.129882 1.9375 9.1875 C1.08478516 7.56908203 1.08478516 7.56908203 0.21484375 5.91796875 C-1 3 -1 3 0 0 Z " fill="#7E7242" transform="translate(120,81)"/>
<path d="M0 0 C0.66 0.33 1.32 0.66 2 1 C2 8.92 2 16.84 2 25 C0.35 25 -1.3 25 -3 25 C-3.33 23.35 -3.66 21.7 -4 20 C-3.67 20.66 -3.34 21.32 -3 22 C-1.68 22 -0.36 22 1 22 C0.67 14.74 0.34 7.48 0 0 Z " fill="#9FC0B2" transform="translate(256,122)"/>
<path d="M0 0 C1.37478516 0.01740234 1.37478516 0.01740234 2.77734375 0.03515625 C3.69644531 0.04417969 4.61554688 0.05320312 5.5625 0.0625 C6.27277344 0.07410156 6.98304688 0.08570312 7.71484375 0.09765625 C7.71484375 1.41765625 7.71484375 2.73765625 7.71484375 4.09765625 C7.05484375 4.09765625 6.39484375 4.09765625 5.71484375 4.09765625 C5.71484375 6.07765625 5.71484375 8.05765625 5.71484375 10.09765625 C4.72484375 10.09765625 3.73484375 10.09765625 2.71484375 10.09765625 C2.64056537 6.75512901 2.64937422 4.29406485 3.71484375 1.09765625 C2.06484375 1.09765625 0.41484375 1.09765625 -1.28515625 1.09765625 C-1.61515625 2.08765625 -1.94515625 3.07765625 -2.28515625 4.09765625 C-2.61515625 3.10765625 -2.94515625 2.11765625 -3.28515625 1.09765625 C-2.28515625 0.09765625 -2.28515625 0.09765625 0 0 Z M3.71484375 5.09765625 C4.71484375 9.09765625 4.71484375 9.09765625 4.71484375 9.09765625 Z " fill="#A0B4AD" transform="translate(159.28515625,122.90234375)"/>
<path d="M0 0 C2.64 0 5.28 0 8 0 C8 0.66 8 1.32 8 2 C7.01 2.33 6.02 2.66 5 3 C4.67 3.99 4.34 4.98 4 6 C3.34 6 2.68 6 2 6 C1.67 7.98 1.34 9.96 1 12 C0.67 12 0.34 12 0 12 C0 8.04 0 4.08 0 0 Z " fill="#E6F6F2" transform="translate(182,124)"/>
<path d="M0 0 C0.99 0 1.98 0 3 0 C3.33 2.64 3.66 5.28 4 8 C2.35 8 0.7 8 -1 8 C-1.33 8.99 -1.66 9.98 -2 11 C-2.66 11 -3.32 11 -4 11 C-4 9.35 -4 7.7 -4 6 C-3.01 5.67 -2.02 5.34 -1 5 C-0.67 3.35 -0.34 1.7 0 0 Z " fill="#888049" transform="translate(219,154)"/>
<path d="M0 0 C0.66 0.99 1.32 1.98 2 3 C5.3 2.67 8.6 2.34 12 2 C11.34 3.32 10.68 4.64 10 6 C6.7 6 3.4 6 0 6 C-1 2 -1 2 0 0 Z " fill="#B3C5BF" transform="translate(181,141)"/>
<path d="M0 0 C-0.33 0.99 -0.66 1.98 -1 3 C-1.99 3 -2.98 3 -4 3 C-4 3.66 -4 4.32 -4 5 C-4.66 5 -5.32 5 -6 5 C-6.33 9.95 -6.66 14.9 -7 20 C-7.33 20 -7.66 20 -8 20 C-8.05411124 17.58303128 -8.09372278 15.16728213 -8.125 12.75 C-8.14175781 12.06808594 -8.15851563 11.38617188 -8.17578125 10.68359375 C-8.21185049 6.9684625 -8.18812735 4.09092116 -6 1 C-4 0 -4 0 0 0 Z " fill="#CADAD3" transform="translate(108,122)"/>
<path d="M0 0 C1.67542976 0.28604898 3.34385343 0.61781233 5 1 C4.67 2.98 4.34 4.96 4 7 C3.01 7 2.02 7 1 7 C1 7.66 1 8.32 1 9 C0.34 9 -0.32 9 -1 9 C-1.09765625 2.84765625 -1.09765625 2.84765625 -1 1 C-0.67 0.67 -0.34 0.34 0 0 Z " fill="#EBF1EF" transform="translate(133,125)"/>
<path d="M0 0 C0.99 0.33 1.98 0.66 3 1 C4.32 0.67 5.64 0.34 7 0 C6.67 3.3 6.34 6.6 6 10 C5.67 10 5.34 10 5 10 C5 8.35 5 6.7 5 5 C4.67 5.66 4.34 6.32 4 7 C3.01 6.67 2.02 6.34 1 6 C0.67 4.02 0.34 2.04 0 0 Z " fill="#4D572E" transform="translate(186,154)"/>
<path d="M0 0 C-0.99 0.33 -1.98 0.66 -3 1 C-3.33 2.65 -3.66 4.3 -4 6 C-5.32 5.67 -6.64 5.34 -8 5 C-8 3.68 -8 2.36 -8 1 C-8.66 0.67 -9.32 0.34 -10 0 C-6.30581799 -1.231394 -3.7943739 -0.64432764 0 0 Z " fill="#B8D2CB" transform="translate(220,127)"/>
<path d="M0 0 C2 2 2 2 2 6 C0 6 0 6 -1.625 4.5 C-2.07875 4.005 -2.5325 3.51 -3 3 C-6.11332248 3.66868314 -6.11332248 3.66868314 -7.1875 6.0625 C-7.455625 6.701875 -7.72375 7.34125 -8 8 C-8 5.69 -8 3.38 -8 1 C-5.23749964 -0.38125018 -3.05268901 -0.19079306 0 0 Z " fill="#737F50" transform="translate(80,153)"/>
<path d="M0 0 C0.33 0 0.66 0 1 0 C1.08139142 2.39652528 1.14067009 4.79025436 1.1875 7.1875 C1.21263672 7.86103516 1.23777344 8.53457031 1.26367188 9.22851562 C1.32923478 13.70864748 0.66743649 16.39440999 -2 20 C-4.9375 19.625 -4.9375 19.625 -8 19 C-8.33 18.34 -8.66 17.68 -9 17 C-6.36 17 -3.72 17 -1 17 C-0.67 11.39 -0.34 5.78 0 0 Z " fill="#C8DBD4" transform="translate(110,128)"/>
<path d="M0 0 C0.515625 0.350625 1.03125 0.70125 1.5625 1.0625 C4.93212417 2.3585093 7.47834579 1.56598014 11 1 C13.4375 1.4375 13.4375 1.4375 15 2 C14.67 2.99 14.34 3.98 14 5 C13.0925 4.835 12.185 4.67 11.25 4.5 C7.88912497 3.89862854 7.88912497 3.89862854 4 4 C4.33 5.32 4.66 6.64 5 8 C0.125 6.25 0.125 6.25 -1 4 C-0.01 4 0.98 4 2 4 C2 3.34 2 2.68 2 2 C1.34 2 0.68 2 0 2 C0 1.34 0 0.68 0 0 Z " fill="#8FA297" transform="translate(159,67)"/>
<path d="M0 0 C0.99 0 1.98 0 3 0 C3.08333357 4.8333472 2.95261487 9.23692563 2 14 C1.01 13.67 0.02 13.34 -1 13 C-1.02708567 11.39592672 -1.04643483 9.7917215 -1.0625 8.1875 C-1.07410156 7.29417969 -1.08570312 6.40085938 -1.09765625 5.48046875 C-1 3 -1 3 0 0 Z M0 7 C0 8.98 0 10.96 0 13 C0.33 13 0.66 13 1 13 C1 11.02 1 9.04 1 7 C0.67 7 0.34 7 0 7 Z " fill="#98ACA6" transform="translate(105,128)"/>
<path d="M0 0 C0 0.66 0 1.32 0 2 C-0.99 2 -1.98 2 -3 2 C-3.66 3.65 -4.32 5.3 -5 7 C-7.375 6.6875 -7.375 6.6875 -10 6 C-10.66 5.01 -11.32 4.02 -12 3 C-9.69 3 -7.38 3 -5 3 C-5 2.34 -5 1.68 -5 1 C-3 0 -3 0 0 0 Z " fill="#AF8844" transform="translate(147,100)"/>
<path d="M0 0 C0.33 2.31 0.66 4.62 1 7 C-0.98 7.33 -2.96 7.66 -5 8 C-5 5.69 -5 3.38 -5 1 C-3 0 -3 0 0 0 Z " fill="#978140" transform="translate(88,155)"/>
<path d="M0 0 C1.98 0 3.96 0 6 0 C6.33 2.64 6.66 5.28 7 8 C5.35 7.67 3.7 7.34 2 7 C2 6.34 2 5.68 2 5 C2.99 5 3.98 5 5 5 C5 4.34 5 3.68 5 3 C3.35 3 1.7 3 0 3 C0 2.01 0 1.02 0 0 Z " fill="#7A7849" transform="translate(207,153)"/>
<path d="M0 0 C1.625 1.625 1.625 1.625 3 4 C2.23021995 7.49900021 1.543667 9.456333 -1 12 C-0.67 10.02 -0.34 8.04 0 6 C-1.98 6.99 -1.98 6.99 -4 8 C-2.25 2.25 -2.25 2.25 0 0 Z " fill="#81783E" transform="translate(125,51)"/>
<path d="M0 0 C0.99 0.66 1.98 1.32 3 2 C3.125 4.5 3.125 4.5 3 7 C3.33 7.66 3.66 8.32 4 9 C0.52176885 10.15941038 -1.45895578 9.70820884 -5 9 C-4.67 8.01 -4.34 7.02 -4 6 C-2.35 6.33 -0.7 6.66 1 7 C0.67 4.69 0.34 2.38 0 0 Z M1 2 C2 4 2 4 2 4 Z " fill="#6A6A40" transform="translate(222,155)"/>
<path d="M0 0 C4.455 0.99 4.455 0.99 9 2 C8.67 2.99 8.34 3.98 8 5 C5.03 5 2.06 5 -1 5 C-0.67 3.35 -0.34 1.7 0 0 Z " fill="#E6F0ED" transform="translate(74,141)"/>
<path d="M0 0 C0.625 1.875 0.625 1.875 1 4 C0.34 4.66 -0.32 5.32 -1 6 C-1.99 6 -2.98 6 -4 6 C-4 7.32 -4 8.64 -4 10 C-4.99 9.67 -5.98 9.34 -7 9 C-6.4568634 5.19804378 -4.84334437 3.49869657 -2 1 C-1.34 0.67 -0.68 0.34 0 0 Z " fill="#9A8041" transform="translate(190,89)"/>
<path d="M0 0 C2 2 2 2 2.125 5.625 C2.08375 6.73875 2.0425 7.8525 2 9 C1.34 9 0.68 9 0 9 C0 8.34 0 7.68 0 7 C-0.99 6.67 -1.98 6.34 -3 6 C-3 4.35 -3 2.7 -3 1 C-2.01 0.67 -1.02 0.34 0 0 Z " fill="#857E48" transform="translate(137,154)"/>
<path d="M0 0 C1.32 0 2.64 0 4 0 C6.28571429 8.42857143 6.28571429 8.42857143 6 13 C5.01 12.67 4.02 12.34 3 12 C1.68171639 8.76421296 1.92163955 5.44785988 2 2 C1.34 2 0.68 2 0 2 C0 1.34 0 0.68 0 0 Z " fill="#BED2CC" transform="translate(86,123)"/>
<path d="M0 0 C0.33 0.99 0.66 1.98 1 3 C2.65 3 4.3 3 6 3 C5.67 4.65 5.34 6.3 5 8 C3.35 8 1.7 8 0 8 C0.33 7.01 0.66 6.02 1 5 C0.34 4.67 -0.32 4.34 -1 4 C-0.67 2.68 -0.34 1.36 0 0 Z " fill="#D6E5DF" transform="translate(144,69)"/>
<path d="M0 0 C1.134375 0.020625 2.26875 0.04125 3.4375 0.0625 C3.7675 1.0525 4.0975 2.0425 4.4375 3.0625 C1.4375 5.0625 1.4375 5.0625 -1.25 4.6875 C-2.013125 4.48125 -2.77625 4.275 -3.5625 4.0625 C-3.8925 3.0725 -4.2225 2.0825 -4.5625 1.0625 C-3.5625 0.0625 -3.5625 0.0625 0 0 Z " fill="#A18544" transform="translate(189.5625,67.9375)"/>
<path d="M0 0 C0.66666667 1.33333333 1.33333333 2.66666667 2 4 C2.37125 4.61875 2.7425 5.2375 3.125 5.875 C4.26915841 8.65367042 4.13516968 11.02626695 4 14 C3.34 14 2.68 14 2 14 C0.02905192 9.07262981 -0.1799928 5.21979128 0 0 Z " fill="#9E8549" transform="translate(122,78)"/>
<path d="M0 0 C0 0.66 0 1.32 0 2 C-3 4 -3 4 -6 4 C-5.67 4.99 -5.34 5.98 -5 7 C-4.01 7 -3.02 7 -2 7 C-2.33 7.66 -2.66 8.32 -3 9 C-4.32 9 -5.64 9 -7 9 C-7 6.36 -7 3.72 -7 1 C-2.25 0 -2.25 0 0 0 Z " fill="#6C6B36" transform="translate(207,154)"/>
<path d="M0 0 C2.2477975 2.05233685 3.0022242 3.00667261 4 6 C4 9.11227195 3.54372951 11.94152152 3 15 C2.01 14.67 1.02 14.34 0 14 C0.09539062 13.31292969 0.19078125 12.62585938 0.2890625 11.91796875 C0.39992187 11.01691406 0.51078125 10.11585938 0.625 9.1875 C0.74101562 8.29417969 0.85703125 7.40085938 0.9765625 6.48046875 C1.23500743 3.74309609 1.23500743 3.74309609 -1 1 C-0.67 0.67 -0.34 0.34 0 0 Z " fill="#EDF6F3" transform="translate(240,123)"/>
<path d="M0 0 C-0.33 1.32 -0.66 2.64 -1 4 C-2.65 3.67 -4.3 3.34 -6 3 C-6.33 5.31 -6.66 7.62 -7 10 C-7.33 10 -7.66 10 -8 10 C-8 7.03 -8 4.06 -8 1 C-3.375 -1.125 -3.375 -1.125 0 0 Z " fill="#A8BFB8" transform="translate(139,123)"/>
<path d="M0 0 C0 0.66 0 1.32 0 2 C-3.15506142 2.93619813 -5.96586502 3.1057123 -9.25 3.0625 C-10.14203125 3.05347656 -11.0340625 3.04445313 -11.953125 3.03515625 C-12.62859375 3.02355469 -13.3040625 3.01195313 -14 3 C-13.67 2.34 -13.34 1.68 -13 1 C-8.63585999 0.14428627 -4.43923267 -0.10827397 0 0 Z " fill="#AC8B47" transform="translate(168,108)"/>
<path d="M0 0 C2.97 0 5.94 0 9 0 C9.33 0.66 9.66 1.32 10 2 C9.67 2.99 9.34 3.98 9 5 C7.68 5 6.36 5 5 5 C5 4.01 5 3.02 5 2 C3.35 1.67 1.7 1.34 0 1 C0 0.67 0 0.34 0 0 Z " fill="#79794F" transform="translate(116,153)"/>
<path d="M0 0 C0.99 0 1.98 0 3 0 C3.33 2.97 3.66 5.94 4 9 C2.68 9 1.36 9 0 9 C0 6.03 0 3.06 0 0 Z " fill="#E6F3EF" transform="translate(165,137)"/>
<path d="M0 0 C0.66 0 1.32 0 2 0 C2 2.31 2 4.62 2 7 C-0.97 6.505 -0.97 6.505 -4 6 C-4 4.35 -4 2.7 -4 1 C-2.68 1.33 -1.36 1.66 0 2 C0 1.34 0 0.68 0 0 Z " fill="#B9C6C3" transform="translate(134,132)"/>
<path d="M0 0 C2.475 0.99 2.475 0.99 5 2 C5 3.98 5 5.96 5 8 C3.68 8 2.36 8 1 8 C0.34 6.68 -0.32 5.36 -1 4 C-0.34 4 0.32 4 1 4 C0.67 2.68 0.34 1.36 0 0 Z M2 3 C3 6 3 6 3 6 Z " fill="#C4CFCD" transform="translate(150,126)"/>
<path d="M0 0 C3.8063457 0.67170806 7.35206816 1.72746564 11 3 C10.67 3.99 10.34 4.98 10 6 C8.68 6 7.36 6 6 6 C6 5.01 6 4.02 6 3 C4.68 3 3.36 3 2 3 C2 2.34 2 1.68 2 1 C1.34 0.67 0.68 0.34 0 0 Z " fill="#B08743" transform="translate(148,89)"/>
<path d="M0 0 C2.64 1.32 5.28 2.64 8 4 C5 7 5 7 3 8 C1.35 6.68 -0.3 5.36 -2 4 C-0.68 4.33 0.64 4.66 2 5 C2 4.01 2 3.02 2 2 C1.34 2 0.68 2 0 2 C0 1.34 0 0.68 0 0 Z " fill="#877B46" transform="translate(181,63)"/>
<path d="M0 0 C0.33 0 0.66 0 1 0 C1 3.63 1 7.26 1 11 C2.98 11 4.96 11 7 11 C6.34 11.66 5.68 12.32 5 13 C4.30251417 14.31747324 3.63040043 15.64914193 3 17 C2.67 15.68 2.34 14.36 2 13 C1.34 13.66 0.68 14.32 0 15 C0 10.05 0 5.1 0 0 Z " fill="#977B3B" transform="translate(138,51)"/>
<path d="M0 0 C3.875 0.875 3.875 0.875 5 2 C5.33 1.34 5.66 0.68 6 0 C6.66 0.33 7.32 0.66 8 1 C7.67 2.98 7.34 4.96 7 7 C6.01 7 5.02 7 4 7 C3.67 5.35 3.34 3.7 3 2 C1.68 2.33 0.36 2.66 -1 3 C-0.67 2.01 -0.34 1.02 0 0 Z " fill="#6B734A" transform="translate(85,153)"/>
<path d="M0 0 C2.475 0.495 2.475 0.495 5 1 C4.67 1.66 4.34 2.32 4 3 C4.33 3.33 4.66 3.66 5 4 C5 4.99 5 5.98 5 7 C3.35 7 1.7 7 0 7 C0 4.69 0 2.38 0 0 Z " fill="#5D6230" transform="translate(162,155)"/>
<path d="M0 0 C0.99 0.33 1.98 0.66 3 1 C3 3.64 3 6.28 3 9 C1.68 8.67 0.36 8.34 -1 8 C-0.67 5.36 -0.34 2.72 0 0 Z " fill="#D3F1EB" transform="translate(254,123)"/>
<path d="M0 0 C2.33944736 0.28730055 4.6739143 0.61936779 7 1 C6.34 5.29 5.68 9.58 5 14 C4.67 14 4.34 14 4 14 C3.97421875 13.31292969 3.9484375 12.62585938 3.921875 11.91796875 C3.86515625 11.01691406 3.8084375 10.11585938 3.75 9.1875 C3.70359375 8.29417969 3.6571875 7.40085938 3.609375 6.48046875 C3.20878584 3.83946485 3.20878584 3.83946485 0.953125 2.17578125 C0.30859375 1.78777344 -0.3359375 1.39976563 -1 1 C-0.67 0.67 -0.34 0.34 0 0 Z " fill="#ABC3B6" transform="translate(202,122)"/>
<path d="M0 0 C1.32 0.33 2.64 0.66 4 1 C3.67 3.64 3.34 6.28 3 9 C2.01 9 1.02 9 0 9 C0 6.03 0 3.06 0 0 Z " fill="#AF8A46" transform="translate(174,61)"/>
<path d="M0 0 C2.91517292 1.07401108 4.77810176 1.77810176 7 4 C5.35 3.67 3.7 3.34 2 3 C2.33 4.32 2.66 5.64 3 7 C0.08482708 5.92598892 -1.77810176 5.22189824 -4 3 C-2.68 2.67 -1.36 2.34 0 2 C0 1.34 0 0.68 0 0 Z " fill="#7B6F3A" transform="translate(164,54)"/>
<path d="M0 0 C1.65 0 3.3 0 5 0 C4.67 0.66 4.34 1.32 4 2 C3.34 2 2.68 2 2 2 C2 2.66 2 3.32 2 4 C3.32 4 4.64 4 6 4 C6 4.66 6 5.32 6 6 C4.35 6.33 2.7 6.66 1 7 C0.31292445 4.50935112 0 2.62113708 0 0 Z " fill="#716939" transform="translate(207,156)"/>
<path d="M0 0 C2.0625 0.4375 2.0625 0.4375 4 1 C3.01 1 2.02 1 1 1 C1 3.97 1 6.94 1 10 C0.01 10 -0.98 10 -2 10 C-1.85950482 8.52031676 -1.71245174 7.04125484 -1.5625 5.5625 C-1.48128906 4.73878906 -1.40007812 3.91507813 -1.31640625 3.06640625 C-1 1 -1 1 0 0 Z " fill="#586235" transform="translate(112,153)"/>
<path d="M0 0 C1.4540625 0.0309375 1.4540625 0.0309375 2.9375 0.0625 C2.2775 0.7225 1.6175 1.3825 0.9375 2.0625 C1.2675 2.7225 1.5975 3.3825 1.9375 4.0625 C0.9475 4.3925 -0.0425 4.7225 -1.0625 5.0625 C-1.79573796 7.07758358 -1.79573796 7.07758358 -2.0625 9.0625 C-2.42372881 7.75192607 -2.77630311 6.43896376 -3.125 5.125 C-3.42083984 4.02865234 -3.42083984 4.02865234 -3.72265625 2.91015625 C-3.83480469 2.30042969 -3.94695312 1.69070312 -4.0625 1.0625 C-3.0625 0.0625 -3.0625 0.0625 0 0 Z " fill="#656841" transform="translate(142.0625,152.9375)"/>
<path d="M0 0 C1.32 0.99 2.64 1.98 4 3 C3.34 3 2.68 3 2 3 C2 5.64 2 8.28 2 11 C1.34 11 0.68 11 0 11 C-1.07536348 7.77390955 -1.14375422 5.37822416 -1 2 C-0.67 1.34 -0.34 0.68 0 0 Z " fill="#ACC2BD" transform="translate(150,136)"/>
<path d="M0 0 C0.66 0.33 1.32 0.66 2 1 C1.67 1.66 1.34 2.32 1 3 C2.65 3 4.3 3 6 3 C3 5 3 5 -1 5 C-1 4.34 -1 3.68 -1 3 C-2.98 3 -4.96 3 -7 3 C-4.66785852 1.79371992 -2.50357861 0.8345262 0 0 Z " fill="#7E7741" transform="translate(169,105)"/>
<path d="M0 0 C0 0.66 0 1.32 0 2 C-3.92592596 4.05643741 -7.76570244 5.68938409 -12 7 C-12 6.34 -12 5.68 -12 5 C-10.37750059 4.16180842 -8.75191503 3.3295884 -7.125 2.5 C-6.22007812 2.0359375 -5.31515625 1.571875 -4.3828125 1.09375 C-2 0 -2 0 0 0 Z " fill="#867E3C" transform="translate(146,36)"/>
<path d="M0 0 C4.43090471 1.20842856 6.98112756 2.51668565 10 6 C8.53932801 5.54917531 7.08151968 5.08906463 5.625 4.625 C4.81289062 4.36976562 4.00078125 4.11453125 3.1640625 3.8515625 C1 3 1 3 -1 1 C-0.67 0.67 -0.34 0.34 0 0 Z M-2 2 C-1.67 2.66 -1.34 3.32 -1 4 C-1.99 3.67 -2.98 3.34 -4 3 C-3.34 2.67 -2.68 2.34 -2 2 Z " fill="#847745" transform="translate(171,37)"/>
<path d="M0 0 C1.32 0 2.64 0 4 0 C3.67 2.97 3.34 5.94 3 9 C2.34 9 1.68 9 1 9 C-0.4783226 6.04335481 -0.06032783 3.25770263 0 0 Z " fill="#746D33" transform="translate(117,155)"/>
<path d="M0 0 C0.66 0.33 1.32 0.66 2 1 C2 3.64 2 6.28 2 9 C1.01 9 0.02 9 -1 9 C-2.0326802 6.21176345 -2.04509293 5.1322726 -1.0625 2.25 C-0.711875 1.5075 -0.36125 0.765 0 0 Z " fill="#E6EDEB" transform="translate(94,126)"/>
<path d="M0 0 C0.66 0 1.32 0 2 0 C3.17571451 3.67410785 3.07366746 7.16929183 3 11 C1.68 10.67 0.36 10.34 -1 10 C-0.34 9.67 0.32 9.34 1 9 C0.835 8.443125 0.67 7.88625 0.5 7.3125 C-0.04041351 4.81308751 -0.07082065 2.54954338 0 0 Z " fill="#AFC6BE" transform="translate(80,132)"/>
<path d="M0 0 C0.66 0 1.32 0 2 0 C3.16063604 4.25566547 2.76173392 7.6835078 2 12 C1.67 12 1.34 12 1 12 C1 10.35 1 8.7 1 7 C0.34 7 -0.32 7 -1 7 C-0.67 4.69 -0.34 2.38 0 0 Z " fill="#DCECE7" transform="translate(120,124)"/>
<path d="M0 0 C1.65 0 3.3 0 5 0 C3.68 0.33 2.36 0.66 1 1 C0.67 2.32 0.34 3.64 0 5 C-2.97 4.67 -5.94 4.34 -9 4 C-9 3.67 -9 3.34 -9 3 C-5.92382812 2.70703125 -5.92382812 2.70703125 -2.84765625 2.4140625 C-2.23792969 2.27742187 -1.62820312 2.14078125 -1 2 C-0.67 1.34 -0.34 0.68 0 0 Z " fill="#5B6A40" transform="translate(94,160)"/>
<path d="M0 0 C0.33 0.99 0.66 1.98 1 3 C-2 5 -2 5 -5.1875 4.625 C-6.115625 4.41875 -7.04375 4.2125 -8 4 C-5.33333333 2.66666667 -2.66666667 1.33333333 0 0 Z " fill="#A6B3AF" transform="translate(179,143)"/>
<path d="M0 0 C0.33 0 0.66 0 1 0 C1 1.65 1 3.3 1 5 C2.65 5 4.3 5 6 5 C6 5.66 6 6.32 6 7 C3.36 7 0.72 7 -2 7 C-1.34 4.69 -0.68 2.38 0 0 Z " fill="#AABEB8" transform="translate(94,140)"/>
<path d="M0 0 C1.875 0.125 1.875 0.125 4 1 C5.25 4.0625 5.25 4.0625 6 7 C5.34 7 4.68 7 4 7 C4 6.34 4 5.68 4 5 C3.01 5 2.02 5 1 5 C0.67 3.35 0.34 1.7 0 0 Z " fill="#927D44" transform="translate(188,53)"/>
<path d="M0 0 C0.33 0.99 0.66 1.98 1 3 C1.66 3 2.32 3 3 3 C3 2.34 3 1.68 3 1 C3.99 1.33 4.98 1.66 6 2 C4.71937515 3.7074998 3.38232443 5.37373596 2 7 C1.34 7 0.68 7 0 7 C-0.66 5.02 -1.32 3.04 -2 1 C-1.34 0.67 -0.68 0.34 0 0 Z " fill="#867541" transform="translate(161,47)"/>
<path d="M0 0 C2.97 0.495 2.97 0.495 6 1 C6.33 2.65 6.66 4.3 7 6 C6.67 5.01 6.34 4.02 6 3 C4.02 3.33 2.04 3.66 0 4 C0 2.68 0 1.36 0 0 Z " fill="#A98648" transform="translate(132,43)"/>
<path d="M0 0 C2.97 0.495 2.97 0.495 6 1 C5.01 1.495 5.01 1.495 4 2 C4 2.66 4 3.32 4 4 C1.36 4.66 -1.28 5.32 -4 6 C-3.525625 5.566875 -3.05125 5.13375 -2.5625 4.6875 C-0.76313043 2.97690387 -0.76313043 2.97690387 0 0 Z " fill="#99793B" transform="translate(170,39)"/>
<path d="M0 0 C2 2 2 2 2 5 C1.4225 4.814375 0.845 4.62875 0.25 4.4375 C-2.20692525 3.95976454 -3.64397534 4.24270636 -6 5 C-5.34 4.67 -4.68 4.34 -4 4 C-4 3.34 -4 2.68 -4 2 C-2.68 1.34 -1.36 0.68 0 0 Z " fill="#566F49" transform="translate(186,160)"/>
<path d="M0 0 C2.0625 0.4375 2.0625 0.4375 4 1 C3.01 1.66 2.02 2.32 1 3 C1 3.66 1 4.32 1 5 C1.66 5.33 2.32 5.66 3 6 C3 6.66 3 7.32 3 8 C1.68 7.67 0.36 7.34 -1 7 C-1.04254356 5.00045254 -1.04080783 2.99958364 -1 1 C-0.67 0.67 -0.34 0.34 0 0 Z " fill="#6E6C3B" transform="translate(228,155)"/>
<path d="M0 0 C4.875 0.875 4.875 0.875 6 2 C5.71269945 4.33944736 5.38063221 6.6739143 5 9 C3 6 3 6 2.5 3.9375 C2.11802369 1.77936701 2.11802369 1.77936701 0 0 Z M4 4 C5 6 5 6 5 6 Z " fill="#53603A" transform="translate(96,153)"/>
<path d="M0 0 C2 1 2 1 2.6328125 2.84765625 C2.79523438 3.57855469 2.95765625 4.30945313 3.125 5.0625 C3.29257813 5.79597656 3.46015625 6.52945313 3.6328125 7.28515625 C3.75398437 7.85105469 3.87515625 8.41695312 4 9 C2.68 8.67 1.36 8.34 0 8 C0 5.36 0 2.72 0 0 Z " fill="#E4EFEB" transform="translate(170,137)"/>
<path d="M0 0 C1.65 0 3.3 0 5 0 C5.33 1.32 5.66 2.64 6 4 C4.35 4 2.7 4 1 4 C0.67 2.68 0.34 1.36 0 0 Z " fill="#D7EAE5" transform="translate(223,124)"/>
<path d="M0 0 C0 0.33 0 0.66 0 1 C-1.423125 1.433125 -1.423125 1.433125 -2.875 1.875 C-6.05211578 2.76825109 -6.05211578 2.76825109 -8 5 C-8.33 3.68 -8.66 2.36 -9 1 C-5.64919071 -1.10976881 -3.77897651 -1.0497157 0 0 Z " fill="#A9C5C0" transform="translate(179,123)"/>
<path d="M0 0 C1.32 0.33 2.64 0.66 4 1 C4 1.66 4 2.32 4 3 C5.32 3.66 6.64 4.32 8 5 C5.125 5.125 5.125 5.125 2 5 C1.34 4.34 0.68 3.68 0 3 C0 2.01 0 1.02 0 0 Z " fill="#A68944" transform="translate(127,75)"/>
<path d="M0 0 C1.32 0 2.64 0 4 0 C4 0.99 4 1.98 4 3 C4.66 3 5.32 3 6 3 C6.33 3.99 6.66 4.98 7 6 C5.68 5.67 4.36 5.34 3 5 C3 4.34 3 3.68 3 3 C2.01 3 1.02 3 0 3 C0 2.01 0 1.02 0 0 Z " fill="#D5E1DD" transform="translate(155,66)"/>
<path d="M0 0 C0.33 0 0.66 0 1 0 C1 2.31 1 4.62 1 7 C-1.31 6.34 -3.62 5.68 -6 5 C-5.67 4.34 -5.34 3.68 -5 3 C-3.35 3 -1.7 3 0 3 C0 2.01 0 1.02 0 0 Z " fill="#907B41" transform="translate(125,155)"/>
<path d="M0 0 C1.32 0 2.64 0 4 0 C4 1.32 4 2.64 4 4 C3.34 4 2.68 4 2 4 C2.33 4.99 2.66 5.98 3 7 C2.34 7 1.68 7 1 7 C0.67 4.69 0.34 2.38 0 0 Z " fill="#7B7132" transform="translate(181,155)"/>
<path d="M0 0 C0.99 0.33 1.98 0.66 3 1 C2.67 3.31 2.34 5.62 2 8 C3.32 8.66 4.64 9.32 6 10 C4.33388095 10.042721 2.66617115 10.04063832 1 10 C0 9 0 9 -0.09765625 6.93359375 C-0.08605469 6.10988281 -0.07445312 5.28617188 -0.0625 4.4375 C-0.05347656 3.61121094 -0.04445312 2.78492188 -0.03515625 1.93359375 C-0.02355469 1.29550781 -0.01195312 0.65742188 0 0 Z " fill="#847D4E" transform="translate(171,154)"/>
<path d="M0 0 C1.65 0 3.3 0 5 0 C5.33 0.66 5.66 1.32 6 2 C5.67 2.66 5.34 3.32 5 4 C3.35 3.67 1.7 3.34 0 3 C0 2.01 0 1.02 0 0 Z " fill="#817138" transform="translate(92,155)"/>
<path d="M0 0 C1.98 0 3.96 0 6 0 C5.67 0.99 5.34 1.98 5 3 C3.35 3.33 1.7 3.66 0 4 C0 2.68 0 1.36 0 0 Z " fill="#E7F1ED" transform="translate(208,124)"/>
<path d="M0 0 C0.33 0.66 0.66 1.32 1 2 C1.99 1.67 2.98 1.34 4 1 C4 3.31 4 5.62 4 8 C1 6 1 6 0.3125 2.875 C0.209375 1.92625 0.10625 0.9775 0 0 Z " fill="#EAF5F2" transform="translate(85,123)"/>
<path d="M0 0 C0 0.99 0 1.98 0 3 C-2.31 3 -4.62 3 -7 3 C-6.67 2.01 -6.34 1.02 -6 0 C-3 -1 -3 -1 0 0 Z " fill="#CDD4C8" transform="translate(174,72)"/>
<path d="M0 0 C0.99 0.33 1.98 0.66 3 1 C3.125 3.875 3.125 3.875 3 7 C2.34 7.66 1.68 8.32 1 9 C0.63877119 7.68942607 0.28619689 6.37646376 -0.0625 5.0625 C-0.35833984 3.96615234 -0.35833984 3.96615234 -0.66015625 2.84765625 C-0.77230469 2.23792969 -0.88445312 1.62820312 -1 1 C-0.67 0.67 -0.34 0.34 0 0 Z " fill="#595739" transform="translate(146,154)"/>
<path d="M0 0 C1.98 0 3.96 0 6 0 C6.66 1.65 7.32 3.3 8 5 C4.62496331 3.8141763 2.35277269 2.72426311 0 0 Z " fill="#736F40" transform="translate(129,80)"/>
<path d="M0 0 C1.98 0 3.96 0 6 0 C6 0.99 6 1.98 6 3 C3.69 2.67 1.38 2.34 -1 2 C-0.67 1.34 -0.34 0.68 0 0 Z " fill="#A68534" transform="translate(154,51)"/>
<path d="M0 0 C0.66 0 1.32 0 2 0 C2 1.65 2 3.3 2 5 C0.35 5 -1.3 5 -3 5 C-2 2 -2 2 0 0 Z " fill="#877F4B" transform="translate(145,159)"/>
<path d="M0 0 C2.64 0 5.28 0 8 0 C7.67 0.99 7.34 1.98 7 3 C4.0625 2.625 4.0625 2.625 1 2 C0.67 1.34 0.34 0.68 0 0 Z " fill="#9AB1AA" transform="translate(101,145)"/>
<path d="M0 0 C1.32 0 2.64 0 4 0 C4 0.99 4 1.98 4 3 C3.34 3 2.68 3 2 3 C2 3.66 2 4.32 2 5 C1.01 4.67 0.02 4.34 -1 4 C-0.67 2.68 -0.34 1.36 0 0 Z " fill="#BFE8E0" transform="translate(212,137)"/>
<path d="M0 0 C0.66 0 1.32 0 2 0 C2.99 1.98 3.98 3.96 5 6 C2.36 5.34 -0.28 4.68 -3 4 C-2.01 3.67 -1.02 3.34 0 3 C0 2.01 0 1.02 0 0 Z " fill="#A98D53" transform="translate(140,81)"/>
<path d="M0 0 C2.76223278 2.76223278 2.57856291 5.20706617 3 9 C2.34 8.67 1.68 8.34 1 8 C0.26924352 5.6859378 -0.40138258 3.35171131 -1 1 C-0.67 0.67 -0.34 0.34 0 0 Z " fill="#8B7E44" transform="translate(120,81)"/>
<path d="M0 0 C0.66 0 1.32 0 2 0 C1.67 1.98 1.34 3.96 1 6 C0.01 5.67 -0.98 5.34 -2 5 C-2 4.01 -2 3.02 -2 2 C-1.34 2 -0.68 2 0 2 C0 1.34 0 0.68 0 0 Z " fill="#A3864A" transform="translate(128,49)"/>
</svg>
